<svg version="1.1" id="Layer_1" xmlns="http://www.w3.org/2000/svg" xmlns:xlink="http://www.w3.org/1999/xlink" x="0px" y="0px"
	 width="100%" viewBox="0 0 700 394" enable-background="new 0 0 700 394" xml:space="preserve">
<path fill="#FFFFFE" opacity="1.000000" stroke="none" 
	d="
M454.000000,395.000000 
	C302.701141,395.000000 151.902252,395.000000 1.051690,395.000000 
	C1.051690,263.731140 1.051690,132.462265 1.051690,1.096698 
	C234.215515,1.096698 467.431091,1.096698 700.823364,1.096698 
	C700.823364,132.333145 700.823364,263.666534 700.823364,395.000000 
	C618.795593,395.000000 536.647827,395.000000 454.000000,395.000000 
M538.160095,258.491058 
	C538.350952,258.819397 538.634521,258.957855 539.017517,258.984955 
	C539.017517,258.984955 539.095154,258.971283 539.329834,259.575012 
	C540.877686,260.731598 542.425598,261.888184 544.187927,263.540405 
	C544.506165,263.678925 544.824463,263.817474 545.441345,264.547089 
	C549.637573,266.467560 553.833801,268.388000 558.169922,270.364166 
	C558.169922,270.364166 558.306213,270.299988 558.892700,270.849060 
	C570.034973,274.050690 580.712341,272.696899 591.807373,267.655334 
	C593.844360,268.286102 595.842957,269.127441 597.925720,269.506683 
	C603.354065,270.495209 608.819275,271.281189 614.749207,272.279053 
	C614.749207,272.279053 615.246277,272.281891 615.246277,272.281891 
	C615.246277,272.281891 615.727966,272.158966 616.066223,272.448975 
	C616.466797,272.356049 616.867371,272.263123 617.803650,272.276215 
	C618.161072,272.219177 618.518494,272.162140 619.126526,272.337524 
	C619.418518,272.236755 619.710449,272.135986 620.728699,272.077850 
	C621.850586,271.737885 622.972473,271.397949 624.758362,271.121887 
	C626.141174,270.578156 627.523926,270.034393 629.679688,269.421082 
	C630.834290,268.873291 631.988831,268.325500 633.614868,267.784668 
	C633.957764,267.662506 634.130981,267.419281 634.042664,267.065613 
	C634.042664,267.065613 634.074829,267.152435 634.765198,267.091583 
	C636.203430,266.077850 637.641602,265.064148 639.646484,263.885925 
	C640.104919,263.516998 640.563354,263.148102 641.678955,262.722656 
	C644.969421,259.540466 648.601440,256.637909 651.481873,253.119965 
	C658.234314,244.873169 663.686035,235.882095 665.139709,224.345001 
	C668.201721,218.142639 668.731506,211.657288 667.310974,204.084198 
	C666.548035,200.385468 665.785034,196.686722 665.008728,192.247604 
	C662.390259,188.140717 659.771729,184.033829 657.006653,179.289902 
	C656.531555,178.879776 656.056519,178.469650 655.417542,177.448654 
	C645.834106,169.875824 635.193237,165.491821 622.792297,167.617981 
	C617.022156,168.607254 611.161316,170.060303 608.158386,176.735092 
	C613.233215,178.641403 618.904419,179.676315 623.248962,182.649750 
	C630.526245,187.630356 635.272034,194.943237 638.030273,203.519501 
	C640.265076,210.468246 638.789856,217.190826 636.445679,223.436554 
	C634.108704,229.663101 630.575562,235.769516 621.943359,236.594818 
	C622.179565,234.460358 622.264404,232.531708 622.621399,230.654816 
	C625.088257,217.685837 625.786438,204.879715 616.901794,193.842911 
	C614.420715,190.760834 613.074768,184.686493 606.281555,187.273758 
	C606.281555,187.273758 605.927429,187.147430 605.946777,186.336517 
	C604.841248,179.355453 601.453979,184.700317 598.090820,185.047882 
	C595.390991,184.955017 592.691223,184.862167 589.413269,184.301346 
	C587.007812,183.879227 584.613770,183.256577 582.192078,183.118301 
	C580.952881,183.047531 579.458374,183.562988 578.441711,184.307999 
	C576.482117,185.743912 574.555542,187.349197 573.035522,189.224838 
	C571.576233,191.025513 570.648926,193.257294 569.406677,195.388062 
	C569.406677,195.388062 569.331787,195.481857 568.517395,195.201309 
	C567.894775,195.334427 566.804504,195.330811 566.719604,195.621155 
	C565.417908,200.073135 564.247192,204.563431 562.984070,209.781357 
	C563.048279,210.513306 563.112488,211.245239 563.006470,212.503387 
	C562.954956,212.680313 562.903442,212.857254 562.396790,213.467331 
	C562.513428,214.631180 562.630066,215.795013 562.861389,217.766571 
	C562.936646,218.849991 563.011902,219.933411 562.888672,221.511642 
	C562.844666,221.683807 562.800598,221.855988 562.283691,222.657181 
	C563.130432,227.188263 563.470154,231.901932 565.011963,236.182663 
	C565.953186,238.796066 565.836914,240.077499 562.979736,241.192276 
	C558.579590,237.081802 553.834045,233.276321 549.867188,228.783279 
	C544.958008,223.222839 545.190796,215.865234 544.679993,208.161331 
	C544.762085,206.426407 544.844177,204.691483 545.347412,202.392853 
	C548.297607,196.946625 551.247803,191.500397 554.701477,185.696304 
	C555.796997,184.766556 556.892456,183.836807 558.692383,182.793762 
	C564.830933,180.170197 570.969421,177.546616 577.078491,174.935638 
	C564.954834,163.374847 542.752441,164.791351 528.736755,178.320557 
	C527.125000,180.486389 525.513245,182.652222 523.307617,185.189835 
	C521.367004,191.111069 519.426453,197.032318 517.099915,203.825516 
	C517.516296,209.250076 517.932739,214.674622 518.247192,220.652512 
	C518.486206,221.120850 518.725159,221.589203 519.167175,222.860977 
	C519.714478,224.093369 520.261780,225.325760 520.165466,226.581421 
	C521.447937,230.311371 522.730408,234.041321 524.126221,238.221573 
	C524.126221,238.221573 524.571411,238.353653 524.555725,238.403488 
	C524.555725,238.403488 524.526367,238.446716 524.587585,239.213043 
	C524.977600,239.857941 525.367615,240.502853 525.660645,241.428757 
	C525.680908,241.647797 525.790955,241.803467 526.036133,242.617645 
	C528.613770,246.165359 531.191467,249.713074 533.922424,253.063446 
	C533.922424,253.063446 533.733521,253.226990 533.890930,253.837555 
	C534.785461,254.678024 535.679993,255.518509 536.628906,256.130890 
	C536.628906,256.130890 536.593018,256.353302 536.738403,256.904785 
	C537.162659,257.245117 537.586853,257.585449 538.008667,257.998138 
	C538.008667,257.998138 538.081055,257.998138 538.160095,258.491058 
M108.000305,192.001831 
	C108.000305,192.001831 108.078018,192.081253 107.367844,191.957306 
	C106.132210,191.410767 104.896576,190.864212 103.660934,190.317657 
	C103.310051,190.576248 102.959167,190.834839 102.608284,191.093445 
	C103.472733,192.752991 104.337181,194.412521 105.078972,196.641953 
	C104.769363,197.118896 104.459755,197.595840 103.359840,198.011200 
	C99.631401,197.441559 98.359352,195.453262 99.546944,191.786652 
	C100.790192,187.948196 102.015915,184.085999 102.863953,180.151138 
	C103.060150,179.240753 101.690346,177.992859 100.199127,176.919785 
	C98.110939,177.275467 96.022758,177.631149 93.223961,178.115585 
	C92.683052,178.709915 91.851372,179.218079 91.645798,179.911789 
	C89.368111,187.597824 86.889603,195.243240 85.072952,203.041168 
	C83.563309,209.521301 82.862915,216.189957 81.701645,223.411972 
	C79.717270,222.307022 78.504066,221.631470 77.080742,220.329742 
	C77.039429,219.892654 76.998116,219.455551 77.455879,218.663681 
	C76.946396,217.439941 76.436905,216.216187 75.775917,214.715668 
	C75.775917,214.715668 75.813461,214.402374 75.811790,213.847778 
	C75.588959,213.568069 75.366119,213.288361 74.925369,212.245575 
	C71.963844,201.515244 68.872620,190.817932 66.127472,180.032532 
	C65.395844,177.158020 63.772179,176.397079 61.526150,177.053070 
	C59.971138,177.507217 57.921825,178.757751 57.481937,180.105621 
	C55.682304,185.619919 54.460335,191.320251 52.944118,196.930054 
	C49.916775,208.130798 46.835762,219.317047 43.588764,231.197708 
	C42.881012,229.672653 42.327702,228.843475 42.098675,227.932755 
	C38.292236,212.796570 34.527512,197.649887 30.751087,182.506134 
	C29.176464,176.191772 28.682123,175.915039 22.005840,177.872055 
	C24.388264,187.493240 26.774950,197.131638 29.034307,207.666885 
	C29.985647,210.789474 30.936989,213.912079 32.079292,217.657593 
	C32.157658,218.302597 32.236027,218.947617 32.121464,220.498154 
	C32.976646,225.564743 31.693077,231.300797 36.897289,235.691132 
	C36.949062,236.123047 37.000839,236.554962 36.534107,237.429626 
	C37.337902,239.621735 38.141697,241.813858 39.263485,244.364075 
	C39.486347,244.595413 39.735394,244.793900 40.280476,245.574509 
	C42.094738,247.647385 43.649269,247.282196 45.614601,244.910828 
	C46.168400,244.627747 46.722198,244.344666 47.993435,243.912506 
	C48.558281,241.474442 49.123131,239.036377 49.706093,235.881699 
	C49.899532,234.947906 50.092976,234.014114 50.990990,232.920273 
	C51.687748,229.617538 52.384506,226.314789 53.089325,222.358093 
	C53.187515,221.934570 53.285706,221.511063 54.023495,220.856537 
	C55.244213,215.772705 56.464931,210.688858 57.690079,204.948944 
	C57.847027,204.313660 58.003975,203.678391 58.822872,202.896713 
	C60.748806,202.291199 59.994247,196.894363 63.999348,200.894775 
	C64.042679,205.681854 63.482250,210.662811 68.324608,214.253525 
	C68.324608,214.253525 68.227188,214.568787 68.090691,215.359650 
	C68.618927,216.587189 69.147163,217.814728 69.972488,219.850739 
	C70.163132,220.981354 70.353783,222.111969 69.669815,223.100784 
	C65.333511,223.665619 66.927010,226.102081 68.065468,228.317932 
	C68.738441,229.627808 69.824211,230.774551 70.269539,232.142700 
	C71.351280,235.465988 72.016777,238.929810 73.195435,242.212997 
	C73.492401,243.040176 75.088959,243.400818 76.247246,244.222076 
	C76.247246,244.222076 76.232933,244.514832 76.181053,245.346924 
	C78.537430,247.859421 80.828178,248.172897 83.494995,244.868378 
	C83.942596,244.551788 84.390198,244.235199 85.558708,243.974121 
	C86.040123,243.981445 86.521538,243.988770 87.110634,244.267868 
	C87.193237,244.317474 87.275833,244.367096 87.358437,244.416702 
	C87.237663,244.278793 87.116882,244.140900 87.012596,243.186142 
	C87.935852,239.522095 89.079712,235.896088 89.720200,232.183258 
	C90.358253,228.484589 90.491264,224.698792 90.882126,220.298615 
	C91.005264,219.881912 91.128403,219.465195 91.961929,219.023361 
	C92.771744,218.233383 94.078384,217.565567 94.307724,216.632843 
	C95.470680,211.903046 96.354050,207.104477 97.335388,202.330017 
	C97.657265,202.408188 97.979149,202.486359 98.301025,202.564545 
	C99.170601,204.714294 100.040169,206.864059 100.972603,209.936890 
	C100.959717,213.963577 100.946831,217.990250 100.386490,222.553482 
	C99.993042,225.107147 99.599602,227.660828 99.141266,230.635712 
	C100.671333,230.716431 101.927055,230.782684 103.179817,230.888443 
	C103.179817,230.888443 103.141899,230.877014 103.040352,231.668594 
	C103.971054,238.113266 107.033836,241.626175 112.000610,242.000000 
	C112.000610,242.000000 112.027466,241.974442 112.025131,242.768112 
	C113.721039,243.468292 115.416946,244.168472 117.083099,244.828094 
	C117.083099,244.828094 117.133408,244.827377 117.159477,245.611084 
	C117.702370,246.184479 118.171753,247.154037 118.799438,247.270523 
	C125.736488,248.557877 132.830017,249.555389 139.150787,245.567688 
	C141.298050,244.212997 142.381897,241.172745 144.114807,238.473358 
	C144.281143,238.198318 144.517395,238.011917 145.602997,237.973206 
	C150.875275,238.381332 147.348587,234.692291 147.988174,232.345749 
	C148.257492,231.851532 148.526825,231.357315 149.474930,231.187653 
	C150.986572,233.020920 152.498230,234.854202 154.009888,236.687469 
	C154.563171,236.417999 155.116455,236.148514 155.669739,235.879044 
	C154.104813,231.914749 152.539871,227.950439 150.935913,223.135071 
	C151.111847,221.448120 151.287796,219.761154 152.161316,218.069153 
	C153.110397,219.592743 154.201111,221.047852 154.978134,222.654663 
	C156.453568,225.705658 157.749435,228.843491 159.549774,232.303665 
	C159.719788,232.830292 159.889801,233.356934 160.004745,234.688232 
	C161.183975,243.204636 175.369415,250.960999 183.397629,247.435944 
	C183.730988,247.289566 183.815536,246.576477 184.769394,245.974945 
	C186.514954,245.660309 188.260498,245.345673 190.321777,245.636444 
	C195.998169,247.689697 198.806900,245.567093 199.177658,238.592514 
	C199.336319,238.288254 199.577454,238.079025 200.399948,237.785233 
	C200.580612,237.492142 200.761292,237.199051 200.947632,236.997513 
	C200.947632,236.997513 200.895172,236.922272 201.582397,236.891754 
	C203.150543,236.060974 204.718674,235.230194 206.101852,234.497406 
	C206.643814,231.526978 207.532745,228.294342 207.737213,225.018982 
	C207.902817,222.365891 207.245209,219.661407 206.862549,216.189697 
	C206.898178,215.131760 206.933807,214.073822 207.556290,212.488464 
	C206.827927,209.295837 206.099564,206.103195 205.282227,202.461105 
	C205.267410,202.137787 205.366714,201.854492 205.828613,200.752609 
	C206.245789,198.445312 205.838715,196.772934 202.572296,196.591568 
	C202.283905,195.905869 201.995514,195.220184 201.841843,193.725922 
	C199.863815,186.373260 197.483307,184.800430 188.100418,185.114944 
	C187.412064,185.011932 186.723694,184.908920 185.991226,184.082733 
	C182.706711,180.377274 179.936981,183.458847 176.368057,184.924927 
	C175.913849,184.954025 175.459656,184.983124 174.547623,184.461929 
	C171.878738,183.746368 169.675858,183.922821 168.842712,187.698471 
	C168.380859,187.876266 167.919022,188.054062 166.695511,188.151382 
	C166.167725,188.845825 165.639938,189.540268 164.933044,190.631226 
	C164.755875,190.878586 164.519409,191.038010 163.479416,191.084137 
	C158.824951,192.916321 157.324097,196.433609 158.049225,201.588577 
	C158.049225,201.588577 157.890961,201.985107 157.220047,202.070709 
	C155.680786,203.502197 154.141525,204.933685 152.602264,206.365173 
	C154.321930,201.259567 151.283310,197.939789 148.901566,194.554199 
	C148.356689,193.779678 146.798630,193.717941 145.820587,193.245850 
	C145.820587,193.245850 145.681076,193.261398 145.840714,192.522034 
	C143.349350,189.787521 141.310547,185.923111 138.219757,184.685165 
	C135.856339,183.738571 131.944672,180.871567 128.322495,184.781219 
	C127.896057,184.731781 127.469627,184.682343 126.862991,184.009140 
	C121.866211,179.885757 121.126640,179.989075 119.469864,185.128220 
	C119.108597,185.153381 118.747337,185.178543 117.563873,185.079880 
	C116.380592,185.748062 115.197311,186.416229 113.556633,187.493576 
	C112.726334,188.053818 111.896034,188.614059 110.696648,188.619019 
	C109.823730,189.772308 108.950806,190.925598 108.000305,192.001831 
M593.147949,143.494293 
	C592.447693,144.388214 591.747437,145.282150 590.450562,146.478912 
	C583.913208,154.339874 585.537354,168.959167 592.776306,173.262207 
	C595.533081,169.158676 598.271179,165.082947 601.676208,160.890213 
	C603.459167,159.610809 605.242188,158.331390 607.792419,156.964691 
	C610.261597,156.042313 612.730835,155.119949 615.741699,154.464920 
	C616.461792,154.217346 617.181824,153.969772 618.611572,153.836716 
	C619.064453,153.701019 619.517395,153.565308 620.824524,153.696396 
	C626.319092,154.392731 631.813721,155.089081 637.735168,155.839539 
	C637.708618,147.976761 633.587646,143.228897 627.800293,139.868973 
	C619.103882,134.820190 610.044128,133.942398 600.894653,138.917496 
	C600.894653,138.917496 600.938171,138.877609 600.328918,138.981766 
	C600.034485,139.260117 599.740051,139.538483 599.097351,139.963013 
	C598.915405,140.168442 598.856140,140.404602 598.256409,140.813644 
	C596.882446,141.510925 595.508545,142.208206 593.969727,142.703018 
	C593.969727,142.703018 593.634888,142.765762 593.634888,142.765762 
	C593.634888,142.765762 593.701904,143.067017 593.147949,143.494293 
M366.340485,191.923172 
	C366.088501,192.239975 365.836548,192.556778 365.247559,192.918167 
	C365.247559,192.918167 365.016327,193.167343 364.345551,193.280304 
	C363.688538,193.693756 363.031525,194.107208 361.966461,194.777451 
	C361.870636,193.092499 361.837006,191.824554 361.718292,190.564621 
	C361.520233,188.461929 362.765533,185.555222 358.780518,185.583038 
	C354.981171,185.609543 355.238403,188.191559 355.239563,190.757782 
	C355.247040,207.417725 355.279297,224.077988 355.177307,240.737350 
	C355.158813,243.757706 355.910156,245.454712 359.273438,245.519897 
	C362.895996,245.590134 362.697174,243.242264 362.698212,240.821259 
	C362.702332,231.324951 362.641968,221.827286 362.783844,212.332779 
	C362.898865,204.634262 366.044250,198.554962 372.930145,194.654877 
	C374.201538,193.934784 375.329712,192.961823 376.765686,192.003387 
	C377.162872,192.048248 377.560059,192.093124 378.555786,192.471054 
	C381.041534,192.227737 383.527283,191.984421 386.530212,191.913803 
	C386.709229,191.945007 386.888275,191.976227 387.160126,192.940521 
	C387.205383,204.928696 387.101044,216.919815 387.337280,228.904236 
	C387.580902,241.264603 392.966431,246.029037 404.816162,244.843262 
	C409.867096,244.337830 410.743622,242.216324 407.798676,237.624466 
	C397.931152,239.361832 394.755859,236.713303 394.681030,226.461029 
	C394.625122,218.803284 394.764648,211.144333 394.779572,203.485825 
	C394.799805,193.119843 394.784363,193.119690 404.848999,192.552017 
	C405.015015,192.542648 405.251587,192.619507 405.337799,192.535507 
	C406.449982,191.452621 408.378357,190.367981 408.405457,189.242996 
	C408.433472,188.078644 406.759247,186.672333 405.539703,185.758942 
	C404.873322,185.259857 403.607361,185.523178 402.610870,185.508926 
	C393.243408,185.375046 394.890411,185.787094 394.775574,177.246109 
	C394.740479,174.636902 394.770111,172.026840 394.770111,169.427200 
	C388.172089,169.418900 387.377106,170.155472 387.298492,175.733032 
	C387.275024,177.397812 387.140564,179.077576 387.307831,180.725006 
	C387.647156,184.067169 386.408600,185.056564 382.937622,185.600739 
	C378.036224,186.369202 373.347931,188.496780 368.028870,190.307999 
	C367.648041,190.754684 367.267181,191.201385 366.340485,191.923172 
M220.259354,245.538498 
	C221.054718,245.762650 221.850082,245.986786 222.645432,246.210953 
	C222.081116,245.471573 221.516800,244.732208 220.935867,243.056534 
	C220.931519,218.141006 220.949402,193.225403 220.882309,168.310043 
	C220.876694,166.230057 220.298233,164.151611 219.878906,161.335846 
	C217.967499,159.537689 216.219833,158.896225 214.468597,162.456619 
	C214.174225,163.319885 213.879852,164.183151 213.019684,165.523956 
	C212.682556,167.268768 212.076538,169.009338 212.048843,170.759048 
	C211.667099,194.869934 211.357132,218.981964 211.056137,243.094055 
	C211.028046,245.345642 211.540070,246.960419 214.928986,244.855087 
	C216.613556,244.882996 218.298141,244.910889 220.259354,245.538498 
M288.597656,220.261703 
	C291.853424,208.964264 295.109192,197.666824 298.360596,186.384521 
	C292.167969,184.348831 290.785889,184.949509 289.330505,190.203903 
	C288.176208,194.371048 287.145874,198.572708 285.976074,202.735321 
	C283.342438,212.106812 280.656403,221.463562 277.991669,230.826309 
	C277.568939,230.828506 277.146179,230.830704 276.723450,230.832886 
	C276.152649,228.674454 275.535217,226.527100 275.018890,224.355713 
	C272.209564,212.541962 269.539703,200.692520 266.486328,188.942566 
	C266.107239,187.483871 263.736145,185.616760 262.289551,185.617966 
	C260.796936,185.619232 258.423218,187.399109 257.968109,188.873962 
	C256.059082,195.060303 254.725754,201.424255 253.179596,207.722672 
	C251.345230,215.195145 249.508850,222.667130 247.673355,230.139343 
	C247.218491,230.150070 246.763626,230.160797 246.308762,230.171509 
	C245.832993,228.874557 245.264648,227.603317 244.895935,226.276611 
	C241.599899,214.417557 238.394409,202.533066 235.045135,190.689194 
	C233.295425,184.501724 232.629990,184.250443 226.033798,186.433731 
	C231.288589,204.946228 236.440231,223.508942 242.017929,241.942719 
	C242.453659,243.382736 245.861816,244.619644 247.899063,244.636032 
	C249.275833,244.647125 251.538193,242.566498 251.918381,241.049133 
	C254.504807,230.726959 256.666809,220.299118 259.034821,209.921127 
	C259.693024,207.036469 260.584198,204.204971 261.368500,201.349075 
	C263.490295,204.634842 264.475220,207.700821 265.208099,210.825912 
	C267.562469,220.865570 269.867310,230.917419 272.093597,240.986176 
	C272.737213,243.897003 274.182617,245.027176 277.269623,244.979385 
	C280.186493,244.934235 281.840240,244.247665 282.620819,241.198303 
	C284.353363,234.429962 286.403687,227.742950 288.597656,220.261703 
M458.997864,228.496841 
	C458.616638,219.039307 459.072388,209.454666 457.659790,200.153778 
	C455.490692,185.872162 440.001373,180.156647 428.198639,188.615479 
	C426.806244,189.613373 425.399963,190.591873 423.070618,192.235046 
	C422.843903,189.358246 422.598816,187.639572 422.592621,185.920029 
	C422.569794,179.595688 422.568787,173.270065 422.677765,166.946960 
	C422.730011,163.917542 422.118896,161.694977 418.469604,161.587448 
	C414.257355,161.463303 415.229126,164.549927 415.224457,166.834778 
	C415.173889,191.469635 415.182312,216.104630 415.202606,240.739563 
	C415.203644,242.011414 415.458527,243.283081 415.585358,244.463165 
	C422.393555,245.346939 422.556915,245.187103 422.586456,239.005188 
	C422.632538,229.351715 422.707428,219.698318 422.796936,210.045135 
	C422.852844,204.013626 425.437286,199.084976 429.825775,195.155228 
	C435.774567,189.828323 444.236847,190.163269 448.125885,196.470917 
	C450.182800,199.807083 451.118195,204.260101 451.275909,208.259521 
	C451.695282,218.895950 451.395844,229.559937 451.432648,240.212799 
	C451.441833,242.877304 451.149963,245.681091 455.371521,245.569290 
	C459.181396,245.468414 459.049866,243.099548 459.015686,240.480270 
	C458.967926,236.818893 458.999969,233.156479 458.997864,228.496841 
M347.951324,206.591202 
	C347.564087,204.972168 347.286285,203.317429 346.771423,201.740082 
	C343.994843,193.234070 338.660522,186.965790 329.696838,185.226425 
	C319.469116,183.241776 310.118225,185.087631 303.497101,194.260345 
	C295.740814,205.005692 296.007782,226.229477 303.886017,236.886429 
	C313.230591,249.526947 333.046814,248.472183 340.849457,238.939377 
	C348.356598,229.767517 350.208649,218.976364 347.951324,206.591202 
M475.713440,185.886642 
	C469.021759,187.959442 465.571381,192.519455 465.489655,199.502121 
	C465.414520,205.919785 468.399200,210.515030 473.977173,213.681335 
	C479.009827,216.538071 484.263885,219.213333 488.710693,222.839005 
	C493.895020,227.066055 492.539215,235.189514 486.230865,237.468277 
	C482.383667,238.858002 477.844635,238.668152 473.629578,238.576950 
	C471.132568,238.522919 468.661285,237.280060 466.231964,236.587021 
	C464.228912,240.936432 464.751801,243.821716 469.635651,244.512436 
	C473.565552,245.068253 477.524994,245.862747 481.463593,245.821167 
	C491.077301,245.719620 498.022430,240.704453 499.664612,233.211182 
	C501.592194,224.415619 497.921143,217.748276 488.906342,212.999756 
	C484.377380,210.614151 479.925751,208.009308 475.728668,205.087662 
	C471.940460,202.450607 471.813904,198.753220 474.775787,195.239609 
	C477.459137,192.056473 480.816925,190.629669 484.965729,191.262421 
	C488.208984,191.757050 491.443298,192.310287 494.611877,192.826141 
	C496.459381,187.425888 495.819519,185.772614 490.902313,185.366211 
	C486.137543,184.972397 481.297821,185.485199 475.713440,185.886642 
z"/>
<path fill="#A5CC64" opacity="1.000000" stroke="none" 
	d="
M32.314396,219.592621 
	C32.236027,218.947617 32.157658,218.302597 32.023766,216.953400 
	C31.032701,213.089478 30.097170,209.929749 29.161636,206.770035 
	C26.774950,197.131638 24.388264,187.493240 22.005840,177.872055 
	C28.682123,175.915039 29.176464,176.191772 30.751087,182.506134 
	C34.527512,197.649887 38.292236,212.796570 42.098675,227.932755 
	C42.327702,228.843475 42.881012,229.672653 43.588764,231.197708 
	C46.835762,219.317047 49.916775,208.130798 52.944118,196.930054 
	C54.460335,191.320251 55.682304,185.619919 57.481937,180.105621 
	C57.921825,178.757751 59.971138,177.507217 61.526150,177.053070 
	C63.772179,176.397079 65.395844,177.158020 66.127472,180.032532 
	C68.872620,190.817932 71.963844,201.515244 75.040298,212.899933 
	C75.374641,213.836990 75.594055,214.119675 75.813461,214.402374 
	C75.813461,214.402374 75.775917,214.715668 75.837982,215.216858 
	C76.252296,216.818192 76.604553,217.918335 76.956802,219.018463 
	C76.998116,219.455551 77.039429,219.892654 77.146835,221.025848 
	C77.982857,224.454544 78.752777,227.187149 79.522697,229.919754 
	C79.945602,229.893448 80.368507,229.867142 80.791412,229.840836 
	C82.298080,224.328262 83.903938,218.840500 85.290916,213.297958 
	C88.232582,201.542709 91.060188,189.758911 93.934570,177.986832 
	C96.022758,177.631149 98.110939,177.275467 100.679245,177.332474 
	C100.821594,179.515717 100.561844,181.305389 100.133476,183.053741 
	C97.192581,195.056839 94.216377,207.051270 91.251549,219.048492 
	C91.128403,219.465195 91.005264,219.881912 90.621597,220.904663 
	C88.519974,228.980011 86.678886,236.449326 84.837799,243.918610 
	C84.390198,244.235199 83.942596,244.551788 82.835579,244.911041 
	C80.195084,244.807419 78.214012,244.661133 76.232933,244.514832 
	C76.232933,244.514832 76.247246,244.222076 76.175919,243.692261 
	C74.251205,236.522507 72.397812,229.882538 70.544426,223.242584 
	C70.353783,222.111969 70.163132,220.981354 69.873505,219.108093 
	C69.258751,217.099884 68.742973,215.834335 68.227188,214.568787 
	C68.227188,214.568787 68.324608,214.253525 68.251770,213.691101 
	C67.069649,208.757950 65.960358,204.387238 64.882515,199.625031 
	C63.986027,195.693329 63.058090,192.153137 62.130150,188.612946 
	C61.861069,188.655777 61.591988,188.698593 61.322906,188.741409 
	C60.268909,193.508652 59.214912,198.275879 58.160919,203.043106 
	C58.003975,203.678391 57.847027,204.313660 57.460720,205.577942 
	C55.948872,211.167130 54.666386,216.127335 53.383896,221.087540 
	C53.285706,221.511063 53.187515,221.934570 52.815376,222.935349 
	C51.789761,226.701843 51.038090,229.891083 50.286419,233.080322 
	C50.092976,234.014114 49.899532,234.947906 49.466583,236.521057 
	C48.576714,239.460815 47.926357,241.761200 47.276001,244.061584 
	C46.722198,244.344666 46.168400,244.627747 44.900711,244.906097 
	C42.794758,244.920746 41.402691,244.940140 40.010624,244.959549 
	C39.735394,244.793900 39.486347,244.595413 39.122963,243.805466 
	C38.339169,241.160202 37.695892,239.073532 37.052616,236.986877 
	C37.000839,236.554962 36.949062,236.123047 36.841003,234.997711 
	C35.294605,229.400406 33.804501,224.496521 32.314396,219.592621 
z"/>
<path fill="#A5CC65" opacity="1.000000" stroke="none" 
	d="
M288.461060,220.642242 
	C286.403687,227.742950 284.353363,234.429962 282.620819,241.198303 
	C281.840240,244.247665 280.186493,244.934235 277.269623,244.979385 
	C274.182617,245.027176 272.737213,243.897003 272.093597,240.986176 
	C269.867310,230.917419 267.562469,220.865570 265.208099,210.825912 
	C264.475220,207.700821 263.490295,204.634842 261.368500,201.349075 
	C260.584198,204.204971 259.693024,207.036469 259.034821,209.921127 
	C256.666809,220.299118 254.504807,230.726959 251.918381,241.049133 
	C251.538193,242.566498 249.275833,244.647125 247.899063,244.636032 
	C245.861816,244.619644 242.453659,243.382736 242.017929,241.942719 
	C236.440231,223.508942 231.288589,204.946228 226.033798,186.433731 
	C232.629990,184.250443 233.295425,184.501724 235.045135,190.689194 
	C238.394409,202.533066 241.599899,214.417557 244.895935,226.276611 
	C245.264648,227.603317 245.832993,228.874557 246.308762,230.171509 
	C246.763626,230.160797 247.218491,230.150070 247.673355,230.139343 
	C249.508850,222.667130 251.345230,215.195145 253.179596,207.722672 
	C254.725754,201.424255 256.059082,195.060303 257.968109,188.873962 
	C258.423218,187.399109 260.796936,185.619232 262.289551,185.617966 
	C263.736145,185.616760 266.107239,187.483871 266.486328,188.942566 
	C269.539703,200.692520 272.209564,212.541962 275.018890,224.355713 
	C275.535217,226.527100 276.152649,228.674454 276.723450,230.832886 
	C277.146179,230.830704 277.568939,230.828506 277.991669,230.826309 
	C280.656403,221.463562 283.342438,212.106812 285.976074,202.735321 
	C287.145874,198.572708 288.176208,194.371048 289.330505,190.203903 
	C290.785889,184.949509 292.167969,184.348831 298.360596,186.384521 
	C295.109192,197.666824 291.853424,208.964264 288.461060,220.642242 
z"/>
<path fill="#AED35A" opacity="1.000000" stroke="none" 
	d="
M520.809021,226.558136 
	C520.261780,225.325760 519.714478,224.093369 519.024536,222.412048 
	C518.881958,221.963104 518.944397,221.853699 519.188477,221.756912 
	C519.268311,221.137070 519.104065,220.614014 518.907715,220.096497 
	C518.875671,220.102051 518.811768,220.114670 518.870911,219.644058 
	C518.930054,214.331284 518.930054,209.489120 518.930054,204.999878 
	C523.909607,204.999878 527.983948,204.485428 531.861755,205.138138 
	C536.119629,205.854797 540.196594,207.646790 544.352356,208.970245 
	C545.190796,215.865234 544.958008,223.222839 549.867188,228.783279 
	C553.834045,233.276321 558.579590,237.081802 563.552979,241.527435 
	C565.802612,242.570999 567.478943,243.279404 569.820496,244.268936 
	C568.999878,241.332932 568.449707,239.364517 567.935974,236.945938 
	C568.939636,235.666718 569.850159,234.205414 570.883423,234.112717 
	C576.940552,233.569199 583.026367,233.345474 589.254761,233.279968 
	C590.299133,234.935547 591.191345,236.325089 591.989136,238.033493 
	C591.281799,239.244064 590.668762,240.135773 589.756714,241.155426 
	C587.979309,242.576065 586.500916,243.868744 584.669861,245.177429 
	C580.200256,247.122253 576.083374,249.051041 571.593506,251.008606 
	C570.473389,251.071411 569.726135,251.105453 568.536987,251.055450 
	C565.387329,251.021103 562.679626,251.070816 559.568115,251.066528 
	C549.193909,250.124512 540.288818,246.334305 531.931335,240.674652 
	C528.216064,235.738724 524.512573,231.148438 520.809021,226.558136 
z"/>
<path fill="#A7CD65" opacity="1.000000" stroke="none" 
	d="
M458.997864,228.995667 
	C458.999969,233.156479 458.967926,236.818893 459.015686,240.480270 
	C459.049866,243.099548 459.181396,245.468414 455.371521,245.569290 
	C451.149963,245.681091 451.441833,242.877304 451.432648,240.212799 
	C451.395844,229.559937 451.695282,218.895950 451.275909,208.259521 
	C451.118195,204.260101 450.182800,199.807083 448.125885,196.470917 
	C444.236847,190.163269 435.774567,189.828323 429.825775,195.155228 
	C425.437286,199.084976 422.852844,204.013626 422.796936,210.045135 
	C422.707428,219.698318 422.632538,229.351715 422.586456,239.005188 
	C422.556915,245.187103 422.393555,245.346939 415.585358,244.463165 
	C415.458527,243.283081 415.203644,242.011414 415.202606,240.739563 
	C415.182312,216.104630 415.173889,191.469635 415.224457,166.834778 
	C415.229126,164.549927 414.257355,161.463303 418.469604,161.587448 
	C422.118896,161.694977 422.730011,163.917542 422.677765,166.946960 
	C422.568787,173.270065 422.569794,179.595688 422.592621,185.920029 
	C422.598816,187.639572 422.843903,189.358246 423.070618,192.235046 
	C425.399963,190.591873 426.806244,189.613373 428.198639,188.615479 
	C440.001373,180.156647 455.490692,185.872162 457.659790,200.153778 
	C459.072388,209.454666 458.616638,219.039307 458.997864,228.995667 
z"/>
<path fill="#AED35A" opacity="1.000000" stroke="none" 
	d="
M667.307007,204.953491 
	C668.731506,211.657288 668.201721,218.142639 664.759399,224.777161 
	C659.511597,233.646957 653.381592,240.914688 644.715088,246.076874 
	C643.956116,246.370712 643.495667,246.696457 642.739136,247.054993 
	C641.959290,247.391968 641.475586,247.696152 640.612061,247.994751 
	C637.843445,248.710693 635.454529,249.432251 632.680786,250.113358 
	C630.540588,250.400665 628.785217,250.728424 626.575806,251.032196 
	C623.096558,251.030579 620.071411,251.052948 616.673950,251.011215 
	C614.840210,250.633240 613.378906,250.319351 611.979248,249.660110 
	C613.003540,247.225357 613.966125,245.135941 615.110962,243.025177 
	C615.293152,243.003799 615.660095,243.002121 615.923340,243.239685 
	C617.726868,243.101990 619.378113,242.966751 620.790100,242.313965 
	C633.680481,236.354752 639.608948,225.704361 641.240356,211.797119 
	C641.316650,210.018967 641.117981,208.476212 640.854004,206.623718 
	C640.789612,205.694107 640.790649,205.074234 641.049927,204.091522 
	C649.140991,203.183258 656.973877,202.637817 665.157593,202.067947 
	C665.621399,202.690613 666.464172,203.822052 667.307007,204.953491 
z"/>
<path fill="#A5CC64" opacity="1.000000" stroke="none" 
	d="
M348.035828,207.010803 
	C350.208649,218.976364 348.356598,229.767517 340.849457,238.939377 
	C333.046814,248.472183 313.230591,249.526947 303.886017,236.886429 
	C296.007782,226.229477 295.740814,205.005692 303.497101,194.260345 
	C310.118225,185.087631 319.469116,183.241776 329.696838,185.226425 
	C338.660522,186.965790 343.994843,193.234070 346.771423,201.740082 
	C347.286285,203.317429 347.564087,204.972168 348.035828,207.010803 
M319.230621,191.164810 
	C316.920471,192.715820 314.205078,193.893097 312.370300,195.882538 
	C304.445312,204.475616 303.302368,219.638672 309.413208,231.010269 
	C315.255066,241.881226 328.284607,243.133347 335.608276,233.143677 
	C342.352753,223.944107 342.487244,213.611176 338.696655,203.197235 
	C335.246582,193.718842 330.084900,190.508835 319.230621,191.164810 
z"/>
<path fill="#A5CC64" opacity="1.000000" stroke="none" 
	d="
M164.223663,191.109497 
	C164.519409,191.038010 164.755875,190.878586 165.330750,190.342194 
	C166.304703,189.446075 166.880936,188.838959 167.457169,188.231857 
	C167.919022,188.054062 168.380859,187.876266 169.349030,187.444885 
	C171.572052,186.464935 173.288757,185.738571 175.005447,185.012207 
	C175.459656,184.983124 175.913849,184.954025 177.142761,184.917236 
	C180.623413,184.875000 183.329376,184.840454 186.035339,184.805908 
	C186.723694,184.908920 187.412064,185.011932 188.701172,185.357666 
	C193.436996,188.578400 197.572052,191.556442 201.707108,194.534485 
	C201.995514,195.220184 202.283905,195.905869 202.787415,197.149734 
	C203.861755,199.009003 204.720963,200.310120 205.580170,201.611221 
	C205.366714,201.854492 205.267410,202.137787 205.236237,203.016312 
	C205.783295,206.719635 206.376373,209.867767 206.969437,213.015884 
	C206.933807,214.073822 206.898178,215.131760 206.683685,216.909470 
	C204.634933,224.060257 202.765045,230.491257 200.895172,236.922272 
	C200.895172,236.922272 200.947632,236.997513 200.694443,237.040146 
	C200.261185,237.376801 200.081131,237.670822 199.901062,237.964844 
	C199.577454,238.079025 199.336319,238.288254 198.786041,238.939575 
	C195.598297,241.201462 192.802185,243.116257 190.006058,245.031036 
	C188.260498,245.345673 186.514954,245.660309 183.956085,245.974274 
	C172.989197,246.638962 165.695023,241.844955 160.059814,233.883560 
	C159.889801,233.356934 159.719788,232.830292 159.311310,231.732559 
	C155.447952,221.566879 155.323441,211.830521 157.890961,201.985107 
	C157.890961,201.985107 158.049225,201.588577 158.334412,201.150513 
	C160.487610,197.511459 162.355621,194.310471 164.223663,191.109497 
M165.567535,226.647430 
	C166.804733,228.993179 167.750381,231.559753 169.330460,233.645798 
	C175.593643,241.914505 187.062607,242.003174 193.359360,233.989731 
	C200.590210,224.787598 200.969742,207.113953 194.138626,197.701492 
	C187.675735,188.796402 176.394150,188.246918 169.494370,196.888977 
	C162.536438,205.603897 162.828186,215.670273 165.567535,226.647430 
z"/>
<path fill="#A5CC64" opacity="1.000000" stroke="none" 
	d="
M118.386070,185.203705 
	C118.747337,185.178543 119.108597,185.153381 120.171524,185.088837 
	C122.929848,184.910599 124.986519,184.771759 127.043190,184.632904 
	C127.469627,184.682343 127.896057,184.731781 129.031662,184.857788 
	C136.406967,185.120544 140.814575,189.630203 145.681076,193.261398 
	C145.681076,193.261398 145.820587,193.245850 145.798019,193.634583 
	C150.396713,201.395752 151.312881,209.644470 151.463730,218.074203 
	C151.287796,219.761154 151.111847,221.448120 150.724548,223.833145 
	C149.940826,226.641846 149.368500,228.752472 148.796143,230.863098 
	C148.526825,231.357315 148.257492,231.851532 147.711182,232.839417 
	C146.563995,234.860107 145.693787,236.387131 144.823578,237.914154 
	C144.517395,238.011917 144.281143,238.198318 143.716644,238.818512 
	C138.827148,241.373734 134.532043,244.412201 129.783646,245.536942 
	C125.843971,246.470139 121.370438,245.149521 117.133408,244.827362 
	C117.133408,244.827377 117.083099,244.828094 116.900833,244.588654 
	C115.154869,243.557617 113.591164,242.766022 112.027466,241.974442 
	C112.027466,241.974442 112.000610,242.000000 111.851654,241.693634 
	C108.849098,237.883865 105.995499,234.380432 103.141899,230.877014 
	C103.141899,230.877014 103.179817,230.888443 103.171951,230.476517 
	C102.420708,227.382034 101.677330,224.699493 100.933945,222.016937 
	C100.946831,217.990250 100.959717,213.963577 101.133286,209.144165 
	C102.246017,204.925217 103.198082,201.498993 104.150146,198.072784 
	C104.459755,197.595840 104.769363,197.118896 105.404907,196.196671 
	C106.513229,194.528015 107.295624,193.304626 108.078018,192.081253 
	C108.078018,192.081253 108.000305,192.001831 108.323067,191.930237 
	C109.452461,190.963852 110.259102,190.069077 111.065742,189.174301 
	C111.896034,188.614059 112.726334,188.053818 114.132072,187.282837 
	C115.933701,186.449295 117.159882,185.826508 118.386070,185.203705 
M140.807571,200.947906 
	C134.874435,188.136734 120.478188,187.822937 113.399597,197.506317 
	C107.021500,206.231445 106.969612,223.725510 113.119133,232.505997 
	C120.160126,242.559357 132.494553,242.490143 139.067474,232.173691 
	C145.265793,222.445160 145.228760,212.154129 140.807571,200.947906 
z"/>
<path fill="#A6CC66" opacity="1.000000" stroke="none" 
	d="
M476.102234,185.743225 
	C481.297821,185.485199 486.137543,184.972397 490.902313,185.366211 
	C495.819519,185.772614 496.459381,187.425888 494.611877,192.826141 
	C491.443298,192.310287 488.208984,191.757050 484.965729,191.262421 
	C480.816925,190.629669 477.459137,192.056473 474.775787,195.239609 
	C471.813904,198.753220 471.940460,202.450607 475.728668,205.087662 
	C479.925751,208.009308 484.377380,210.614151 488.906342,212.999756 
	C497.921143,217.748276 501.592194,224.415619 499.664612,233.211182 
	C498.022430,240.704453 491.077301,245.719620 481.463593,245.821167 
	C477.524994,245.862747 473.565552,245.068253 469.635651,244.512436 
	C464.751801,243.821716 464.228912,240.936432 466.231964,236.587021 
	C468.661285,237.280060 471.132568,238.522919 473.629578,238.576950 
	C477.844635,238.668152 482.383667,238.858002 486.230865,237.468277 
	C492.539215,235.189514 493.895020,227.066055 488.710693,222.839005 
	C484.263885,219.213333 479.009827,216.538071 473.977173,213.681335 
	C468.399200,210.515030 465.414520,205.919785 465.489655,199.502121 
	C465.571381,192.519455 469.021759,187.959442 476.102234,185.743225 
z"/>
<path fill="#A6CA6B" opacity="1.000000" stroke="none" 
	d="
M368.568512,190.043335 
	C373.347931,188.496780 378.036224,186.369202 382.937622,185.600739 
	C386.408600,185.056564 387.647156,184.067169 387.307831,180.725006 
	C387.140564,179.077576 387.275024,177.397812 387.298492,175.733032 
	C387.377106,170.155472 388.172089,169.418900 394.770111,169.427200 
	C394.770111,172.026840 394.740479,174.636902 394.775574,177.246109 
	C394.890411,185.787094 393.243408,185.375046 402.610870,185.508926 
	C403.607361,185.523178 404.873322,185.259857 405.539703,185.758942 
	C406.759247,186.672333 408.433472,188.078644 408.405457,189.242996 
	C408.378357,190.367981 406.449982,191.452621 405.337799,192.535507 
	C405.251587,192.619507 405.015015,192.542648 404.848999,192.552017 
	C394.784363,193.119690 394.799805,193.119843 394.779572,203.485825 
	C394.764648,211.144333 394.625122,218.803284 394.681030,226.461029 
	C394.755859,236.713303 397.931152,239.361832 407.798676,237.624466 
	C410.743622,242.216324 409.867096,244.337830 404.816162,244.843262 
	C392.966431,246.029037 387.580902,241.264603 387.337280,228.904236 
	C387.101044,216.919815 387.205383,204.928696 387.396515,192.727203 
	C388.086975,195.104507 388.890533,197.689453 388.932770,200.286743 
	C389.089844,209.948639 388.884094,219.616302 389.028931,229.278564 
	C389.175781,239.076538 395.063385,244.317947 404.263306,242.903564 
	C405.344513,242.737350 406.235291,241.332672 407.214355,240.502121 
	C396.006073,240.991852 393.011475,238.380035 393.008636,227.958862 
	C393.006165,218.794312 393.006317,209.629761 393.006226,200.465210 
	C393.006104,190.497543 393.004486,190.562576 402.880035,190.876022 
	C404.109833,190.915054 405.375397,189.826752 406.624390,189.260803 
	C405.543701,188.514191 404.551605,187.397644 403.360413,187.112274 
	C401.782959,186.734375 400.034332,186.857758 398.386597,187.028809 
	C394.419617,187.440582 392.932037,185.508209 392.997589,181.796402 
	C393.041718,179.299820 393.081238,176.785599 392.815521,174.312271 
	C392.740143,173.610535 391.585815,173.024689 390.926300,172.385696 
	C390.312347,173.239944 389.149353,174.113220 389.178192,174.945206 
	C389.313019,178.836823 389.776337,182.717041 390.158081,187.003555 
	C388.005432,187.003555 385.814056,186.718323 383.732422,187.074463 
	C381.022156,187.538223 378.248383,188.198486 375.794189,189.380783 
	C374.297729,190.101700 373.790497,191.842163 376.523956,192.105560 
	C375.329712,192.961823 374.201538,193.934784 372.930145,194.654877 
	C366.044250,198.554962 362.898865,204.634262 362.783844,212.332779 
	C362.641968,221.827286 362.702332,231.324951 362.698212,240.821259 
	C362.697174,243.242264 362.895996,245.590134 359.273438,245.519897 
	C355.910156,245.454712 355.158813,243.757706 355.177307,240.737350 
	C355.279297,224.077988 355.247040,207.417725 355.239563,190.757782 
	C355.238403,188.191559 354.981171,185.609543 358.780518,185.583038 
	C362.765533,185.555222 361.520233,188.461929 361.718292,190.564621 
	C361.837006,191.824554 361.870636,193.092499 361.966461,194.777451 
	C363.031525,194.107208 363.688538,193.693756 364.671326,193.581482 
	C364.237152,195.550919 363.477203,197.219177 362.717255,198.887436 
	C362.188965,198.834839 361.660706,198.782257 361.132446,198.729660 
	C360.442993,195.132126 359.753540,191.534592 359.064087,187.937057 
	C358.564606,188.030762 358.065125,188.124451 357.565613,188.218155 
	C357.232635,189.628342 356.605377,191.039917 356.611908,192.448517 
	C356.683075,207.764496 356.808228,223.080780 357.072632,238.394333 
	C357.096924,239.801331 358.182861,241.189972 358.775818,242.587143 
	C359.518097,241.172363 360.867371,239.772507 360.902649,238.340317 
	C361.107513,230.012787 360.785980,221.670334 361.067352,213.347290 
	C361.329071,205.605515 362.564148,198.116455 370.315033,193.762817 
	C371.036316,193.357681 371.344727,192.217377 371.844849,191.418427 
	C370.752716,190.960052 369.660614,190.501694 368.568512,190.043335 
z"/>
<path fill="#AED15D" opacity="1.000000" stroke="none" 
	d="
M605.927429,187.147430 
	C605.927429,187.147430 606.281555,187.273758 606.689697,187.529114 
	C614.490784,192.899719 619.967773,199.308075 620.997314,208.972839 
	C615.614807,213.188126 606.034790,213.034866 599.932129,208.771149 
	C599.857849,208.211685 599.898804,207.881912 599.868652,207.226501 
	C599.501038,206.583069 599.204468,206.265274 598.686951,205.707031 
	C596.346130,203.315063 594.226196,201.163559 591.885010,198.728729 
	C585.542542,194.358932 579.230469,193.847519 572.675598,197.387238 
	C571.253906,198.154938 569.770508,198.808273 568.272522,199.157715 
	C568.596924,197.694702 568.964355,196.588287 569.331787,195.481857 
	C569.331787,195.481857 569.406677,195.388062 569.743286,195.247742 
	C575.408447,189.140991 582.149902,185.895798 589.991394,184.769302 
	C592.691223,184.862167 595.390991,184.955017 598.796753,185.301849 
	C601.644226,186.086349 603.785828,186.616882 605.927429,187.147430 
z"/>
<path fill="#0E9951" opacity="1.000000" stroke="none" 
	d="
M558.306213,270.299988 
	C558.306213,270.299988 558.169922,270.364166 557.939697,270.011597 
	C553.520569,267.758026 549.331604,265.856995 545.142700,263.955994 
	C544.824463,263.817474 544.506165,263.678925 544.059692,262.937286 
	C542.319336,261.213196 540.707214,260.092224 539.095154,258.971283 
	C539.095154,258.971283 539.017517,258.984955 538.920532,258.738831 
	C538.639465,258.232666 538.391968,258.067810 538.081055,257.998138 
	C538.081055,257.998138 538.008667,257.998138 537.982178,257.649475 
	C537.501526,256.984985 537.047241,256.669128 536.593018,256.353302 
	C536.593018,256.353302 536.628906,256.130890 536.712402,255.875107 
	C535.775146,254.821884 534.754333,254.024429 533.733521,253.226990 
	C533.733521,253.226990 533.922424,253.063446 533.883545,252.756241 
	C533.572754,250.464859 533.300903,248.480667 533.029053,246.496490 
	C533.513123,246.195831 533.997192,245.895172 534.481262,245.594513 
	C536.316101,247.153961 538.150879,248.713425 539.275696,249.669434 
	C542.372925,250.424332 544.767883,251.317032 547.223389,251.538040 
	C551.467346,251.920029 555.748901,251.885117 560.382141,252.023407 
	C561.483948,252.038483 562.218201,252.055283 562.981323,252.475006 
	C564.423645,253.585678 565.787781,254.426315 567.261047,254.973343 
	C570.281189,256.094727 573.909302,256.358612 576.299072,258.234283 
	C581.162903,262.051819 586.089600,263.690796 592.064819,261.884247 
	C593.128052,261.562805 594.259094,261.465576 595.784119,261.187134 
	C594.572266,263.289734 593.787903,264.650696 592.815308,266.230591 
	C592.072937,266.595520 591.518738,266.741516 590.746460,266.658691 
	C583.619202,269.026031 576.839905,272.079346 569.108459,271.044647 
	C565.538452,270.566864 561.908813,270.534363 558.306213,270.299988 
z"/>
<path fill="#A6CC66" opacity="1.000000" stroke="none" 
	d="
M213.585480,165.046417 
	C213.879852,164.183151 214.174225,163.319885 215.148712,162.305222 
	C217.214539,162.126694 218.600235,162.099579 219.985931,162.072449 
	C220.298233,164.151611 220.876694,166.230057 220.882309,168.310043 
	C220.949402,193.225403 220.931519,218.141006 220.724380,243.614090 
	C220.238068,244.359558 220.061340,244.615265 219.982712,244.938797 
	C218.298141,244.910889 216.613556,244.882996 214.467285,244.381012 
	C213.980484,233.255783 213.983917,222.604477 213.923492,211.953537 
	C213.834778,196.317688 213.700409,180.682114 213.585480,165.046417 
z"/>
<path fill="#A1CB5C" opacity="1.000000" stroke="none" 
	d="
M376.644836,192.054474 
	C373.790497,191.842163 374.297729,190.101700 375.794189,189.380783 
	C378.248383,188.198486 381.022156,187.538223 383.732422,187.074463 
	C385.814056,186.718323 388.005432,187.003555 390.158081,187.003555 
	C389.776337,182.717041 389.313019,178.836823 389.178192,174.945206 
	C389.149353,174.113220 390.312347,173.239944 390.926300,172.385696 
	C391.585815,173.024689 392.740143,173.610535 392.815521,174.312271 
	C393.081238,176.785599 393.041718,179.299820 392.997589,181.796402 
	C392.932037,185.508209 394.419617,187.440582 398.386597,187.028809 
	C400.034332,186.857758 401.782959,186.734375 403.360413,187.112274 
	C404.551605,187.397644 405.543701,188.514191 406.624390,189.260803 
	C405.375397,189.826752 404.109833,190.915054 402.880035,190.876022 
	C393.004486,190.562576 393.006104,190.497543 393.006226,200.465210 
	C393.006317,209.629761 393.006165,218.794312 393.008636,227.958862 
	C393.011475,238.380035 396.006073,240.991852 407.214355,240.502121 
	C406.235291,241.332672 405.344513,242.737350 404.263306,242.903564 
	C395.063385,244.317947 389.175781,239.076538 389.028931,229.278564 
	C388.884094,219.616302 389.089844,209.948639 388.932770,200.286743 
	C388.890533,197.689453 388.086975,195.104507 387.350128,192.260666 
	C386.888275,191.976227 386.709229,191.945007 386.173462,191.483276 
	C382.856262,188.947449 380.308563,189.831650 377.957245,192.137985 
	C377.560059,192.093124 377.162872,192.048248 376.644836,192.054474 
z"/>
<path fill="#7EBE5A" opacity="1.000000" stroke="none" 
	d="
M529.382324,178.046112 
	C542.752441,164.791351 564.954834,163.374847 577.078491,174.935638 
	C570.969421,177.546616 564.830933,180.170197 558.385864,182.497696 
	C558.153076,181.280273 558.490417,179.632019 558.260132,179.548462 
	C555.551941,178.566055 552.763611,177.159210 549.986938,177.138672 
	C543.121338,177.087860 536.250854,177.700256 529.382324,178.046112 
z"/>
<path fill="#9CCB56" opacity="1.000000" stroke="none" 
	d="
M667.308960,204.518845 
	C666.464172,203.822052 665.621399,202.690613 665.157593,202.067947 
	C656.973877,202.637817 649.140991,203.183258 640.835571,203.767426 
	C639.553772,200.944748 638.744446,198.083344 637.950378,194.824600 
	C637.391235,192.650146 636.816711,190.873016 636.490906,189.865158 
	C641.611084,189.396149 646.897095,188.749939 652.202332,188.477280 
	C656.445618,188.259186 661.344666,186.499374 663.824951,192.156006 
	C663.991211,192.535400 664.612427,192.715317 665.022095,192.988007 
	C665.785034,196.686722 666.548035,200.385468 667.308960,204.518845 
z"/>
<path fill="#A1CB5C" opacity="1.000000" stroke="none" 
	d="
M600.872498,138.860931 
	C610.044128,133.942398 619.103882,134.820190 627.800293,139.868973 
	C633.587646,143.228897 637.708618,147.976761 637.735168,155.839539 
	C631.813721,155.089081 626.319092,154.392731 620.402588,153.198120 
	C620.137451,150.950882 620.294250,149.201935 620.473572,147.201462 
	C616.958069,147.044846 613.719360,146.900558 610.601868,146.761673 
	C609.062195,138.063431 609.062195,138.063431 600.872498,138.860931 
z"/>
<path fill="#9CCB56" opacity="1.000000" stroke="none" 
	d="
M517.485901,202.953583 
	C519.426453,197.032318 521.367004,191.111069 523.710022,185.414215 
	C525.726624,186.093948 527.349121,186.966705 528.953613,186.934784 
	C537.370911,186.767395 545.783691,186.371002 554.197998,186.054169 
	C551.247803,191.500397 548.297607,196.946625 544.870056,202.420105 
	C543.149109,201.277771 542.074829,199.447693 540.626526,199.076355 
	C537.626709,198.307190 534.429443,198.297714 531.310608,198.005127 
	C527.857361,197.681137 524.401001,197.389893 520.531128,197.047714 
	C519.776367,198.511429 518.631165,200.732498 517.485901,202.953583 
z"/>
<path fill="#EDF9D7" opacity="1.000000" stroke="none" 
	d="
M637.935059,195.221954 
	C638.744446,198.083344 639.553772,200.944748 640.577393,204.130249 
	C640.790649,205.074234 640.789612,205.694107 640.813721,207.049255 
	C640.881042,209.200531 640.923279,210.616516 640.965515,212.032516 
	C639.608948,225.704361 633.680481,236.354752 620.790100,242.313965 
	C619.378113,242.966751 617.726868,243.101990 616.090820,242.896667 
	C617.711914,237.208328 619.428772,232.100601 621.402100,226.673157 
	C621.490356,220.439682 621.322144,214.525925 621.153931,208.612183 
	C619.967773,199.308075 614.490784,192.899719 606.877686,187.525970 
	C613.074768,184.686493 614.420715,190.760834 616.901794,193.842911 
	C625.786438,204.879715 625.088257,217.685837 622.621399,230.654816 
	C622.264404,232.531708 622.179565,234.460358 621.943359,236.594818 
	C630.575562,235.769516 634.108704,229.663101 636.445679,223.436554 
	C638.789856,217.190826 640.265076,210.468246 638.030273,203.519501 
	C635.272034,194.943237 630.526245,187.630356 623.248962,182.649750 
	C618.904419,179.676315 613.233215,178.641403 608.499146,176.349762 
	C612.194092,176.753586 615.548218,177.542755 619.107788,178.554688 
	C620.454529,179.224915 621.595886,179.672394 622.953369,180.350433 
	C623.762634,180.753342 624.355652,180.925690 624.925781,181.097626 
	C624.902771,181.097214 624.889282,181.143021 625.049683,181.437027 
	C629.451782,186.228012 633.693420,190.724991 637.935059,195.221954 
M620.789185,238.366425 
	C620.739990,238.730347 620.690857,239.094269 620.641724,239.458206 
	C620.902527,239.460281 621.163391,239.462357 621.424255,239.464432 
	C621.383850,239.099594 621.343445,238.734756 620.789185,238.366425 
z"/>
<path fill="#8AC356" opacity="1.000000" stroke="none" 
	d="
M554.449707,185.875229 
	C545.783691,186.371002 537.370911,186.767395 528.953613,186.934784 
	C527.349121,186.966705 525.726624,186.093948 524.006958,185.228317 
	C525.513245,182.652222 527.125000,180.486389 529.059570,178.183334 
	C536.250854,177.700256 543.121338,177.087860 549.986938,177.138672 
	C552.763611,177.159210 555.551941,178.566055 558.260132,179.548462 
	C558.490417,179.632019 558.153076,181.280273 558.033691,182.554352 
	C556.892456,183.836807 555.796997,184.766556 554.449707,185.875229 
z"/>
<path fill="#7EBE5A" opacity="1.000000" stroke="none" 
	d="
M618.902344,178.331940 
	C615.548218,177.542755 612.194092,176.753586 608.434814,175.977936 
	C611.161316,170.060303 617.022156,168.607254 622.792297,167.617981 
	C635.193237,165.491821 645.834106,169.875824 655.143311,177.732971 
	C653.544983,177.480637 652.249756,176.851715 650.890747,176.426758 
	C648.130066,175.563477 645.351318,174.220184 642.550415,174.142456 
	C637.649597,174.006409 632.630493,174.204559 627.847717,175.179092 
	C624.848389,175.790192 620.703491,174.090820 618.902344,178.331940 
z"/>
<path fill="#14984E" opacity="1.000000" stroke="none" 
	d="
M640.991821,248.000351 
	C641.475586,247.696152 641.959290,247.391968 643.029907,247.052765 
	C644.082397,246.714767 644.548035,246.411789 645.013733,246.108795 
	C653.381592,240.914688 659.511597,233.646957 664.702820,225.092697 
	C663.686035,235.882095 658.234314,244.873169 651.481873,253.119965 
	C648.601440,256.637909 644.969421,259.540466 641.347046,262.408447 
	C641.111755,260.510620 641.288879,258.926971 641.287292,257.343506 
	C641.284546,254.562454 641.172485,251.781525 641.085815,248.749557 
	C641.040955,248.332489 641.016418,248.166412 640.991821,248.000351 
z"/>
<path fill="#A1CB5C" opacity="1.000000" stroke="none" 
	d="
M368.298706,190.175659 
	C369.660614,190.501694 370.752716,190.960052 371.844849,191.418427 
	C371.344727,192.217377 371.036316,193.357681 370.315033,193.762817 
	C362.564148,198.116455 361.329071,205.605515 361.067352,213.347290 
	C360.785980,221.670334 361.107513,230.012787 360.902649,238.340317 
	C360.867371,239.772507 359.518097,241.172363 358.775818,242.587143 
	C358.182861,241.189972 357.096924,239.801331 357.072632,238.394333 
	C356.808228,223.080780 356.683075,207.764496 356.611908,192.448517 
	C356.605377,191.039917 357.232635,189.628342 357.565613,188.218155 
	C358.065125,188.124451 358.564606,188.030762 359.064087,187.937057 
	C359.753540,191.534592 360.442993,195.132126 361.132446,198.729660 
	C361.660706,198.782257 362.188965,198.834839 362.717255,198.887436 
	C363.477203,197.219177 364.237152,195.550919 365.006714,193.524994 
	C365.016327,193.167343 365.247559,192.918167 365.738464,192.823029 
	C366.448364,192.367935 366.667358,192.007996 366.886353,191.648071 
	C367.267181,191.201385 367.648041,190.754684 368.298706,190.175659 
z"/>
<path fill="#8AC356" opacity="1.000000" stroke="none" 
	d="
M637.950378,194.824615 
	C633.693420,190.724991 629.451782,186.228012 625.474487,181.388794 
	C632.044067,183.105820 638.459717,183.024292 644.913025,181.992706 
	C648.998718,181.339539 653.073486,180.617889 657.153198,179.926941 
	C659.771729,184.033829 662.390259,188.140717 665.015381,192.617798 
	C664.612427,192.715317 663.991211,192.535400 663.824951,192.156006 
	C661.344666,186.499374 656.445618,188.259186 652.202332,188.477280 
	C646.897095,188.749939 641.611084,189.396149 636.490906,189.865158 
	C636.816711,190.873016 637.391235,192.650146 637.950378,194.824615 
z"/>
<path fill="#9FCA59" opacity="1.000000" stroke="none" 
	d="
M517.292908,203.389557 
	C518.631165,200.732498 519.776367,198.511429 520.531128,197.047714 
	C524.401001,197.389893 527.857361,197.681137 531.310608,198.005127 
	C534.429443,198.297714 537.626709,198.307190 540.626526,199.076355 
	C542.074829,199.447693 543.149109,201.277771 544.659546,202.701950 
	C544.844177,204.691483 544.762085,206.426407 544.516174,208.565796 
	C540.196594,207.646790 536.119629,205.854797 531.861755,205.138138 
	C527.983948,204.485428 523.909607,204.999878 518.930054,204.999878 
	C518.930054,209.489120 518.930054,214.331284 518.755554,219.661255 
	C518.581055,220.149078 518.349182,220.099182 518.349182,220.099182 
	C517.932739,214.674622 517.516296,209.250076 517.292908,203.389557 
z"/>
<path fill="#86C053" opacity="1.000000" stroke="none" 
	d="
M657.079956,179.608429 
	C653.073486,180.617889 648.998718,181.339539 644.913025,181.992706 
	C638.459717,183.024292 632.044067,183.105820 625.314087,181.094788 
	C624.889282,181.143021 624.902771,181.097214 624.757324,180.814880 
	C623.986938,180.394974 623.362122,180.257401 622.737244,180.119843 
	C621.595886,179.672394 620.454529,179.224915 619.107788,178.554688 
	C620.703491,174.090820 624.848389,175.790192 627.847717,175.179092 
	C632.630493,174.204559 637.649597,174.006409 642.550415,174.142456 
	C645.351318,174.220184 648.130066,175.563477 650.890747,176.426758 
	C652.249756,176.851715 653.544983,177.480637 655.225220,178.038391 
	C656.056519,178.469650 656.531555,178.879776 657.079956,179.608429 
z"/>
<path fill="#92C652" opacity="1.000000" stroke="none" 
	d="
M600.883545,138.889221 
	C609.062195,138.063431 609.062195,138.063431 610.601868,146.761673 
	C613.719360,146.900558 616.958069,147.044846 620.473572,147.201462 
	C620.294250,149.201935 620.137451,150.950882 619.975464,153.064713 
	C619.517395,153.565308 619.064453,153.701019 618.105103,153.599213 
	C616.799072,153.640335 615.999512,153.918961 615.200012,154.197586 
	C612.730835,155.119949 610.261597,156.042313 607.267273,156.684799 
	C604.372681,153.272842 601.700256,150.314606 599.761475,146.935471 
	C598.790649,145.243454 599.157654,142.783905 598.919556,140.671509 
	C598.856140,140.404602 598.915405,140.168442 599.593079,139.865280 
	C600.371948,139.470901 600.655029,139.174255 600.938171,138.877609 
	C600.938171,138.877609 600.894653,138.917496 600.883545,138.889221 
z"/>
<path fill="#7EBE5A" opacity="1.000000" stroke="none" 
	d="
M617.046326,251.075317 
	C620.071411,251.052948 623.096558,251.030579 626.556702,251.422699 
	C626.403687,253.178665 625.596497,254.468826 625.268127,255.871109 
	C624.233948,260.286987 623.316406,264.734039 622.541565,269.201630 
	C622.452576,269.715240 623.548096,270.434235 624.094360,271.058014 
	C622.972473,271.397949 621.850586,271.737885 620.082092,272.040100 
	C619.248962,272.036621 619.062439,272.070862 618.875916,272.105103 
	C618.518494,272.162140 618.161072,272.219177 617.150513,272.171875 
	C616.240906,272.097961 615.984436,272.128448 615.727966,272.158966 
	C615.727966,272.158966 615.246277,272.281891 615.246277,272.281891 
	C615.246277,272.281891 614.749207,272.279053 614.148315,272.141602 
	C612.693359,271.671082 611.839355,271.337982 611.372681,270.994476 
	C612.812683,269.535797 614.487000,268.210907 614.803406,266.616516 
	C615.820801,261.489624 616.336853,256.263306 617.046326,251.075317 
z"/>
<path fill="#86C053" opacity="1.000000" stroke="none" 
	d="
M598.588013,140.742584 
	C599.157654,142.783905 598.790649,145.243454 599.761475,146.935471 
	C601.700256,150.314606 604.372681,153.272842 606.883667,156.728439 
	C605.242188,158.331390 603.459167,159.610809 600.923584,160.945587 
	C598.453308,160.473053 595.930420,160.477722 595.164734,159.320160 
	C592.586548,155.422195 590.070862,151.279495 591.047119,146.176086 
	C591.747437,145.282150 592.447693,144.388214 593.536987,143.254242 
	C593.926025,143.014191 594.134583,142.905487 594.134583,142.905487 
	C595.508545,142.208206 596.882446,141.510925 598.588013,140.742584 
z"/>
<path fill="#7EBE5A" opacity="1.000000" stroke="none" 
	d="
M590.748840,146.327484 
	C590.070862,151.279495 592.586548,155.422195 595.164734,159.320160 
	C595.930420,160.477722 598.453308,160.473053 600.590149,161.004074 
	C598.271179,165.082947 595.533081,169.158676 592.776306,173.262207 
	C585.537354,168.959167 583.913208,154.339874 590.748840,146.327484 
z"/>
<path fill="#A7CD65" opacity="1.000000" stroke="none" 
	d="
M610.985352,271.004883 
	C611.839355,271.337982 612.693359,271.671082 613.908569,272.076050 
	C608.819275,271.281189 603.354065,270.495209 597.925720,269.506683 
	C595.842957,269.127441 593.844360,268.286102 591.367676,267.444580 
	C590.927917,267.233826 590.964539,266.887512 590.964539,266.887512 
	C591.518738,266.741516 592.072937,266.595520 593.164062,266.196533 
	C596.848755,263.339752 599.996460,260.735992 603.127686,258.101105 
	C603.111084,258.069977 603.041016,258.061523 603.296082,257.992859 
	C603.740173,257.631165 603.929199,257.338165 604.405151,257.021790 
	C605.127625,256.667175 605.563232,256.335938 606.250366,255.867310 
	C606.699280,255.213287 606.896667,254.696686 607.086304,254.130463 
	C607.078552,254.080841 607.178162,254.093521 607.486389,254.048523 
	C608.522888,253.295074 609.251221,252.586609 610.224915,251.878983 
	C610.470337,251.879822 610.959351,251.838028 610.972168,252.256500 
	C610.850708,253.986099 611.222961,255.822601 610.498291,256.521271 
	C606.466003,260.408569 610.600952,265.569885 608.193359,269.606415 
	C609.124023,270.072571 610.054688,270.538727 610.985352,271.004883 
z"/>
<path fill="#F3FCE5" opacity="1.000000" stroke="none" 
	d="
M213.302582,165.285187 
	C213.700409,180.682114 213.834778,196.317688 213.923492,211.953537 
	C213.983917,222.604477 213.980484,233.255783 214.047256,244.358109 
	C211.540070,246.960419 211.028046,245.345642 211.056137,243.094055 
	C211.357132,218.981964 211.667099,194.869934 212.048843,170.759048 
	C212.076538,169.009338 212.682556,167.268768 213.302582,165.285187 
z"/>
<path fill="#269D4F" opacity="1.000000" stroke="none" 
	d="
M560.014648,252.025131 
	C555.748901,251.885117 551.467346,251.920029 547.223389,251.538040 
	C544.767883,251.317032 542.372925,250.424332 539.275696,249.669434 
	C538.150879,248.713425 536.316101,247.153961 534.481262,245.594513 
	C533.997192,245.895172 533.513123,246.195831 533.029053,246.496490 
	C533.300903,248.480667 533.572754,250.464859 533.806885,252.854919 
	C531.191467,249.713074 528.613770,246.165359 526.031860,242.119141 
	C526.006958,241.423462 525.916992,241.265839 525.757690,241.147766 
	C525.367615,240.502853 524.977600,239.857941 524.941833,238.713409 
	C527.511719,239.149292 529.727417,240.084793 531.943054,241.020279 
	C540.288818,246.334305 549.193909,250.124512 559.579224,251.292404 
	C559.994202,251.572281 560.014648,252.025131 560.014648,252.025131 
z"/>
<path fill="#F3FCE5" opacity="1.000000" stroke="none" 
	d="
M103.754990,198.041992 
	C103.198082,201.498993 102.246017,204.925217 101.101852,208.682617 
	C100.040169,206.864059 99.170601,204.714294 98.301025,202.564545 
	C97.979149,202.486359 97.657265,202.408188 97.335388,202.330017 
	C96.354050,207.104477 95.470680,211.903046 94.307724,216.632843 
	C94.078384,217.565567 92.771744,218.233383 91.606735,219.035919 
	C94.216377,207.051270 97.192581,195.056839 100.133476,183.053741 
	C100.561844,181.305389 100.821594,179.515717 101.100266,177.322723 
	C101.690346,177.992859 103.060150,179.240753 102.863953,180.151138 
	C102.015915,184.085999 100.790192,187.948196 99.546944,191.786652 
	C98.359352,195.453262 99.631401,197.441559 103.754990,198.041992 
z"/>
<path fill="#F3FCE5" opacity="1.000000" stroke="none" 
	d="
M151.812531,218.071686 
	C151.312881,209.644470 150.396713,201.395752 145.741150,193.675751 
	C146.798630,193.717941 148.356689,193.779678 148.901566,194.554199 
	C151.283310,197.939789 154.321930,201.259567 152.602264,206.365173 
	C154.141525,204.933685 155.680786,203.502197 157.555511,202.027908 
	C155.323441,211.830521 155.447952,221.566879 159.096375,231.553360 
	C157.749435,228.843491 156.453568,225.705658 154.978134,222.654663 
	C154.201111,221.047852 153.110397,219.592743 151.812531,218.071686 
z"/>
<path fill="#F3FCE5" opacity="1.000000" stroke="none" 
	d="
M93.579269,178.051208 
	C91.060188,189.758911 88.232582,201.542709 85.290916,213.297958 
	C83.903938,218.840500 82.298080,224.328262 80.791412,229.840836 
	C80.368507,229.867142 79.945602,229.893448 79.522697,229.919754 
	C78.752777,227.187149 77.982857,224.454544 77.251892,221.338928 
	C78.504066,221.631470 79.717270,222.307022 81.701645,223.411972 
	C82.862915,216.189957 83.563309,209.521301 85.072952,203.041168 
	C86.889603,195.243240 89.368111,187.597824 91.645798,179.911789 
	C91.851372,179.218079 92.683052,178.709915 93.579269,178.051208 
z"/>
<path fill="#62B152" opacity="1.000000" stroke="none" 
	d="
M624.426392,271.089966 
	C623.548096,270.434235 622.452576,269.715240 622.541565,269.201630 
	C623.316406,264.734039 624.233948,260.286987 625.268127,255.871109 
	C625.596497,254.468826 626.403687,253.178665 627.010864,251.446686 
	C628.785217,250.728424 630.540588,250.400665 632.664795,250.504181 
	C632.759338,252.361832 632.524841,253.797287 632.203308,255.212952 
	C631.121155,259.975983 630.007996,264.731964 628.906738,269.490662 
	C627.523926,270.034393 626.141174,270.578156 624.426392,271.089966 
z"/>
<path fill="#3EA54E" opacity="1.000000" stroke="none" 
	d="
M629.293213,269.455872 
	C630.007996,264.731964 631.121155,259.975983 632.203308,255.212952 
	C632.524841,253.797287 632.759338,252.361832 633.049683,250.544617 
	C635.454529,249.432251 637.843445,248.710693 640.612061,247.994751 
	C641.016418,248.166412 641.040955,248.332489 640.891418,249.057465 
	C639.507996,250.891602 637.636047,251.982330 637.219482,253.478287 
	C636.171936,257.240753 635.781433,261.186157 634.987061,265.316711 
	C634.589417,266.100952 634.332153,266.626709 634.074829,267.152466 
	C634.074829,267.152435 634.042664,267.065613 633.899109,267.148956 
	C633.500183,267.356567 633.296143,267.538361 633.143433,267.777710 
	C631.988831,268.325500 630.834290,268.873291 629.293213,269.455872 
z"/>
<path fill="#269D4F" opacity="1.000000" stroke="none" 
	d="
M563.176636,211.977188 
	C563.112488,211.245239 563.048279,210.513306 563.280579,209.301559 
	C563.997742,208.195175 564.418396,207.568588 565.228638,207.016403 
	C567.733521,207.726028 569.811096,208.661316 571.972107,208.933090 
	C576.276306,209.474426 580.626404,209.651077 585.025513,210.355255 
	C584.953674,211.480484 584.813782,212.228836 584.231995,212.975449 
	C576.955444,211.885330 569.872681,215.931244 563.176636,211.977188 
z"/>
<path fill="#62B152" opacity="1.000000" stroke="none" 
	d="
M563.087158,221.016815 
	C563.011902,219.933411 562.936646,218.849991 562.932434,217.124359 
	C563.081482,216.319183 563.159485,216.156219 563.524536,216.183228 
	C564.664734,216.811905 565.503479,217.597305 566.373413,217.633591 
	C572.436951,217.886490 578.506897,217.984192 584.522827,218.153030 
	C584.470886,218.174454 584.565063,218.224258 584.430237,218.635284 
	C583.742126,219.958527 583.180603,221.667282 582.636902,221.661636 
	C576.118835,221.594070 569.603333,221.272217 563.087158,221.016815 
z"/>
<path fill="#3EA54E" opacity="1.000000" stroke="none" 
	d="
M584.574829,218.131607 
	C578.506897,217.984192 572.436951,217.886490 566.373413,217.633591 
	C565.503479,217.597305 564.664734,216.811905 563.458862,215.813889 
	C563.021423,214.514450 562.936707,213.774323 562.851990,213.034180 
	C562.903442,212.857254 562.954956,212.680313 563.091553,212.240295 
	C569.872681,215.931244 576.955444,211.885330 584.304871,213.337341 
	C584.738098,215.177841 584.656494,216.654724 584.574829,218.131607 
z"/>
<path fill="#7EBE5A" opacity="1.000000" stroke="none" 
	d="
M562.987915,221.264221 
	C569.603333,221.272217 576.118835,221.594070 582.636902,221.661636 
	C583.180603,221.667282 583.742126,219.958527 584.599609,219.001282 
	C585.018921,220.504105 585.134033,222.051926 584.975342,223.958710 
	C577.676208,224.592712 570.650879,224.867767 563.443115,224.869934 
	C563.092651,223.740768 562.924622,222.884460 562.756592,222.028152 
	C562.800598,221.855988 562.844666,221.683807 562.987915,221.264221 
z"/>
<path fill="#F3FCE5" opacity="1.000000" stroke="none" 
	d="
M117.146439,245.219223 
	C121.370438,245.149521 125.843971,246.470139 129.783646,245.536942 
	C134.532043,244.412201 138.827148,241.373734 143.635071,239.033188 
	C142.381897,241.172745 141.298050,244.212997 139.150787,245.567688 
	C132.830017,249.555389 125.736488,248.557877 118.799438,247.270523 
	C118.171753,247.154037 117.702370,246.184479 117.146439,245.219223 
z"/>
<path fill="#F3FCE5" opacity="1.000000" stroke="none" 
	d="
M160.032288,234.285889 
	C165.695023,241.844955 172.989197,246.638962 183.579391,246.050507 
	C183.815536,246.576477 183.730988,247.289566 183.397629,247.435944 
	C175.369415,250.960999 161.183975,243.204636 160.032288,234.285889 
z"/>
<path fill="#269D4F" opacity="1.000000" stroke="none" 
	d="
M635.127441,265.058228 
	C635.781433,261.186157 636.171936,257.240753 637.219482,253.478287 
	C637.636047,251.982330 639.507996,250.891602 640.911743,249.308472 
	C641.172485,251.781525 641.284546,254.562454 641.287292,257.343506 
	C641.288879,258.926971 641.111755,260.510620 641.018433,262.436707 
	C640.563354,263.148102 640.104919,263.516998 639.019043,263.988220 
	C637.303589,264.413116 636.215515,264.735657 635.127441,265.058228 
z"/>
<path fill="#EDF9D7" opacity="1.000000" stroke="none" 
	d="
M589.702332,184.535324 
	C582.149902,185.895798 575.408447,189.140991 569.783813,195.203522 
	C570.648926,193.257294 571.576233,191.025513 573.035522,189.224838 
	C574.555542,187.349197 576.482117,185.743912 578.441711,184.307999 
	C579.458374,183.562988 580.952881,183.047531 582.192078,183.118301 
	C584.613770,183.256577 587.007812,183.879227 589.702332,184.535324 
z"/>
<path fill="#F3FCE5" opacity="1.000000" stroke="none" 
	d="
M70.107117,223.171692 
	C72.397812,229.882538 74.251205,236.522507 76.096443,243.569153 
	C75.088959,243.400818 73.492401,243.040176 73.195435,242.212997 
	C72.016777,238.929810 71.351280,235.465988 70.269539,232.142700 
	C69.824211,230.774551 68.738441,229.627808 68.065468,228.317932 
	C66.927010,226.102081 65.333511,223.665619 70.107117,223.171692 
z"/>
<path fill="#269D4F" opacity="1.000000" stroke="none" 
	d="
M590.746460,266.658691 
	C590.964539,266.887512 590.927917,267.233826 590.966431,267.402954 
	C580.712341,272.696899 570.034973,274.050690 558.599487,270.574524 
	C561.908813,270.534363 565.538452,270.566864 569.108459,271.044647 
	C576.839905,272.079346 583.619202,269.026031 590.746460,266.658691 
z"/>
<path fill="#57AE50" opacity="1.000000" stroke="none" 
	d="
M531.931335,240.674652 
	C529.727417,240.084793 527.511719,239.149292 524.911255,238.330261 
	C524.526367,238.446716 524.555725,238.403488 524.692505,238.126938 
	C524.756287,237.510239 524.683411,237.170074 524.610474,236.829926 
	C524.411255,237.143707 524.212036,237.457489 524.012817,237.771286 
	C522.730408,234.041321 521.447937,230.311371 520.487244,226.569794 
	C524.512573,231.148438 528.216064,235.738724 531.931335,240.674652 
z"/>
<path fill="#EDF9D7" opacity="1.000000" stroke="none" 
	d="
M562.520142,222.342667 
	C562.924622,222.884460 563.092651,223.740768 563.486328,225.229691 
	C563.862000,226.571793 564.012024,227.281281 564.147705,228.357544 
	C565.388672,231.614929 566.644104,234.505524 567.899536,237.396118 
	C568.449707,239.364517 568.999878,241.332932 569.820496,244.268936 
	C567.478943,243.279404 565.802612,242.570999 563.888062,241.618210 
	C565.836914,240.077499 565.953186,238.796066 565.011963,236.182663 
	C563.470154,231.901932 563.130432,227.188263 562.520142,222.342667 
z"/>
<path fill="#F3FCE5" opacity="1.000000" stroke="none" 
	d="
M201.238785,236.907013 
	C202.765045,230.491257 204.634933,224.060257 206.728760,217.304474 
	C207.245209,219.661407 207.902817,222.365891 207.737213,225.018982 
	C207.532745,228.294342 206.643814,231.526978 206.101852,234.497406 
	C204.718674,235.230194 203.150543,236.060974 201.238785,236.907013 
z"/>
<path fill="#EDF9D7" opacity="1.000000" stroke="none" 
	d="
M58.491894,202.969910 
	C59.214912,198.275879 60.268909,193.508652 61.322906,188.741409 
	C61.591988,188.698593 61.861069,188.655777 62.130150,188.612946 
	C63.058090,192.153137 63.986027,195.693329 64.669312,199.620041 
	C64.424667,200.006561 63.997406,200.001831 63.997406,200.001831 
	C59.994247,196.894363 60.748806,202.291199 58.491894,202.969910 
z"/>
<path fill="#F3FCE5" opacity="1.000000" stroke="none" 
	d="
M145.760895,192.891724 
	C140.814575,189.630203 136.406967,185.120544 129.352753,184.821671 
	C131.944672,180.871567 135.856339,183.738571 138.219757,184.685165 
	C141.310547,185.923111 143.349350,189.787521 145.760895,192.891724 
z"/>
<path fill="#F3FCE5" opacity="1.000000" stroke="none" 
	d="
M85.198257,243.946381 
	C86.678886,236.449326 88.519974,228.980011 90.603394,221.230957 
	C90.491264,224.698792 90.358253,228.484589 89.720200,232.183258 
	C89.079712,235.896088 87.935852,239.522095 87.006302,243.593079 
	C87.000000,244.000000 87.002953,243.996094 87.002953,243.996094 
	C86.521538,243.988770 86.040123,243.981445 85.198257,243.946381 
z"/>
<path fill="#F3FCE5" opacity="1.000000" stroke="none" 
	d="
M149.135544,231.025375 
	C149.368500,228.752472 149.940826,226.641846 150.744049,224.258682 
	C152.539871,227.950439 154.104813,231.914749 155.669739,235.879044 
	C155.116455,236.148514 154.563171,236.417999 154.009888,236.687469 
	C152.498230,234.854202 150.986572,233.020920 149.135544,231.025375 
z"/>
<path fill="#F3FCE5" opacity="1.000000" stroke="none" 
	d="
M201.774475,194.130203 
	C197.572052,191.556442 193.436996,188.578400 189.049683,185.353821 
	C197.483307,184.800430 199.863815,186.373260 201.774475,194.130203 
z"/>
<path fill="#F3FCE5" opacity="1.000000" stroke="none" 
	d="
M190.163910,245.333740 
	C192.802185,243.116257 195.598297,241.201462 198.711105,239.171906 
	C198.806900,245.567093 195.998169,247.689697 190.163910,245.333740 
z"/>
<path fill="#F3FCE5" opacity="1.000000" stroke="none" 
	d="
M63.998375,200.448303 
	C63.997406,200.001831 64.424667,200.006561 64.637863,200.011536 
	C65.960358,204.387238 67.069649,208.757950 68.185593,213.539963 
	C63.482250,210.662811 64.042679,205.681854 63.998375,200.448303 
z"/>
<path fill="#EDF9D7" opacity="1.000000" stroke="none" 
	d="
M564.839111,206.942017 
	C564.418396,207.568588 563.997742,208.195175 563.311523,208.933289 
	C564.247192,204.563431 565.417908,200.073135 566.719604,195.621155 
	C566.804504,195.330811 567.894775,195.334427 568.924561,195.341583 
	C568.964355,196.588287 568.596924,197.694702 568.111633,199.440765 
	C566.942200,202.367599 565.890686,204.654800 564.839111,206.942017 
z"/>
<path fill="#EDF9D7" opacity="1.000000" stroke="none" 
	d="
M32.217930,220.045380 
	C33.804501,224.496521 35.294605,229.400406 36.734188,234.688614 
	C31.693077,231.300797 32.976646,225.564743 32.217930,220.045380 
z"/>
<path fill="#F3FCE5" opacity="1.000000" stroke="none" 
	d="
M103.091125,231.272797 
	C105.995499,234.380432 108.849098,237.883865 111.863358,241.679932 
	C107.033836,241.626175 103.971054,238.113266 103.091125,231.272797 
z"/>
<path fill="#EDF9D7" opacity="1.000000" stroke="none" 
	d="
M53.703697,220.972046 
	C54.666386,216.127335 55.948872,211.167130 57.458504,205.905975 
	C56.464931,210.688858 55.244213,215.772705 53.703697,220.972046 
z"/>
<path fill="#F3FCE5" opacity="1.000000" stroke="none" 
	d="
M100.660217,222.285217 
	C101.677330,224.699493 102.420708,227.382034 103.173431,230.456757 
	C101.927055,230.782684 100.671333,230.716431 99.141266,230.635712 
	C99.599602,227.660828 99.993042,225.107147 100.660217,222.285217 
z"/>
<path fill="#269D4F" opacity="1.000000" stroke="none" 
	d="
M545.291992,264.251526 
	C549.331604,265.856995 553.520569,267.758026 557.869751,269.983765 
	C553.833801,268.388000 549.637573,266.467560 545.291992,264.251526 
z"/>
<path fill="#F3FCE5" opacity="1.000000" stroke="none" 
	d="
M163.851532,191.096802 
	C162.355621,194.310471 160.487610,197.511459 158.356476,200.938171 
	C157.324097,196.433609 158.824951,192.916321 163.851532,191.096802 
z"/>
<path fill="#F3FCE5" opacity="1.000000" stroke="none" 
	d="
M126.953094,184.321014 
	C124.986519,184.771759 122.929848,184.910599 120.432579,185.009277 
	C121.126640,179.989075 121.866211,179.885757 126.953094,184.321014 
z"/>
<path fill="#EDF9D7" opacity="1.000000" stroke="none" 
	d="
M605.937134,186.741974 
	C603.785828,186.616882 601.644226,186.086349 599.247070,185.302414 
	C601.453979,184.700317 604.841248,179.355453 605.937134,186.741974 
z"/>
<path fill="#EDF9D7" opacity="1.000000" stroke="none" 
	d="
M50.638702,233.000305 
	C51.038090,229.891083 51.789761,226.701843 52.811348,223.262329 
	C52.384506,226.314789 51.687748,229.617538 50.638702,233.000305 
z"/>
<path fill="#F3FCE5" opacity="1.000000" stroke="none" 
	d="
M107.722931,192.019287 
	C107.295624,193.304626 106.513229,194.528015 105.466232,195.911728 
	C104.337181,194.412521 103.472733,192.752991 102.608284,191.093445 
	C102.959167,190.834839 103.310051,190.576248 103.660934,190.317657 
	C104.896576,190.864212 106.132210,191.410767 107.722931,192.019287 
z"/>
<path fill="#F3FCE5" opacity="1.000000" stroke="none" 
	d="
M207.262863,212.752167 
	C206.376373,209.867767 205.783295,206.719635 205.280716,203.241043 
	C206.099564,206.103195 206.827927,209.295837 207.262863,212.752167 
z"/>
<path fill="#F3FCE5" opacity="1.000000" stroke="none" 
	d="
M186.013275,184.444321 
	C183.329376,184.840454 180.623413,184.875000 177.474915,184.835876 
	C179.936981,183.458847 182.706711,180.377274 186.013275,184.444321 
z"/>
<path fill="#A6CA6B" opacity="1.000000" stroke="none" 
	d="
M378.256531,192.304520 
	C380.308563,189.831650 382.856262,188.947449 385.914886,191.396912 
	C383.527283,191.984421 381.041534,192.227737 378.256531,192.304520 
z"/>
<path fill="#EDF9D7" opacity="1.000000" stroke="none" 
	d="
M29.097973,207.218460 
	C30.097170,209.929749 31.032701,213.089478 31.928284,216.641937 
	C30.936989,213.912079 29.985647,210.789474 29.097973,207.218460 
z"/>
<path fill="#F3FCE5" opacity="1.000000" stroke="none" 
	d="
M76.206993,244.930878 
	C78.214012,244.661133 80.195084,244.807419 82.597656,245.048279 
	C80.828178,248.172897 78.537430,247.859421 76.206993,244.930878 
z"/>
<path fill="#F3FCE5" opacity="1.000000" stroke="none" 
	d="
M174.776535,184.737061 
	C173.288757,185.738571 171.572052,186.464935 169.497009,187.239502 
	C169.675858,183.922821 171.878738,183.746368 174.776535,184.737061 
z"/>
<path fill="#EDF9D7" opacity="1.000000" stroke="none" 
	d="
M47.634716,243.987061 
	C47.926357,241.761200 48.576714,239.460815 49.457523,236.879364 
	C49.123131,239.036377 48.558281,241.474442 47.634716,243.987061 
z"/>
<path fill="#EDF9D7" opacity="1.000000" stroke="none" 
	d="
M36.793362,237.208252 
	C37.695892,239.073532 38.339169,241.160202 38.963970,243.626404 
	C38.141697,241.813858 37.337902,239.621735 36.793362,237.208252 
z"/>
<path fill="#F3FCE5" opacity="1.000000" stroke="none" 
	d="
M145.213287,237.943680 
	C145.693787,236.387131 146.563995,234.860107 147.693512,233.129929 
	C147.348587,234.692291 150.875275,238.381332 145.213287,237.943680 
z"/>
<path fill="#269D4F" opacity="1.000000" stroke="none" 
	d="
M539.212524,259.273132 
	C540.707214,260.092224 542.319336,261.213196 543.952454,262.689453 
	C542.425598,261.888184 540.877686,260.731598 539.212524,259.273132 
z"/>
<path fill="#F3FCE5" opacity="1.000000" stroke="none" 
	d="
M205.704391,201.181915 
	C204.720963,200.310120 203.861755,199.009003 202.975433,197.360718 
	C205.838715,196.772934 206.245789,198.445312 205.704391,201.181915 
z"/>
<path fill="#F3FCE5" opacity="1.000000" stroke="none" 
	d="
M219.932419,161.704147 
	C218.600235,162.099579 217.214539,162.126694 215.417419,162.089752 
	C216.219833,158.896225 217.967499,159.537689 219.932419,161.704147 
z"/>
<path fill="#F3FCE5" opacity="1.000000" stroke="none" 
	d="
M112.026299,242.371277 
	C113.591164,242.766022 115.154869,243.557617 116.915710,244.608917 
	C115.416946,244.168472 113.721039,243.468292 112.026299,242.371277 
z"/>
<path fill="#14984E" opacity="1.000000" stroke="none" 
	d="
M634.987061,265.316711 
	C636.215515,264.735657 637.303589,264.413116 638.735718,264.070496 
	C637.641602,265.064148 636.203430,266.077850 634.420044,267.122009 
	C634.332153,266.626709 634.589417,266.100952 634.987061,265.316711 
z"/>
<path fill="#F3FCE5" opacity="1.000000" stroke="none" 
	d="
M220.121033,245.238647 
	C220.061340,244.615265 220.238068,244.359558 220.732697,244.082245 
	C221.516800,244.732208 222.081116,245.471573 222.645447,246.210938 
	C221.850082,245.986786 221.054718,245.762650 220.121033,245.238647 
z"/>
<path fill="#EDF9D7" opacity="1.000000" stroke="none" 
	d="
M40.145550,245.267029 
	C41.402691,244.940140 42.794758,244.920746 44.596985,244.986160 
	C43.649269,247.282196 42.094738,247.647385 40.145550,245.267029 
z"/>
<path fill="#F3FCE5" opacity="1.000000" stroke="none" 
	d="
M110.881195,188.896667 
	C110.259102,190.069077 109.452461,190.963852 108.361855,191.968765 
	C108.950806,190.925598 109.823730,189.772308 110.881195,188.896667 
z"/>
<path fill="#269D4F" opacity="1.000000" stroke="none" 
	d="
M533.812256,253.532272 
	C534.754333,254.024429 535.775146,254.821884 536.685242,255.989151 
	C535.679993,255.518509 534.785461,254.678024 533.812256,253.532272 
z"/>
<path fill="#F3FCE5" opacity="1.000000" stroke="none" 
	d="
M77.206345,218.841064 
	C76.604553,217.918335 76.252296,216.818192 75.913727,215.355255 
	C76.436905,216.216187 76.946396,217.439941 77.206345,218.841064 
z"/>
<path fill="#F3FCE5" opacity="1.000000" stroke="none" 
	d="
M68.158936,214.964218 
	C68.742973,215.834335 69.258751,217.099884 69.724960,218.703857 
	C69.147163,217.814728 68.618927,216.587189 68.158936,214.964218 
z"/>
<path fill="#F3FCE5" opacity="1.000000" stroke="none" 
	d="
M117.974976,185.141785 
	C117.159882,185.826508 115.933701,186.449295 114.360764,187.078247 
	C115.197311,186.416229 116.380592,185.748062 117.974976,185.141785 
z"/>
<path fill="#A1CB5C" opacity="1.000000" stroke="none" 
	d="
M615.470825,154.331253 
	C615.999512,153.918961 616.799072,153.640335 617.750244,153.541962 
	C617.181824,153.969772 616.461792,154.217346 615.470825,154.331253 
z"/>
<path fill="#F3FCE5" opacity="1.000000" stroke="none" 
	d="
M167.076340,188.191620 
	C166.880936,188.838959 166.304703,189.446075 165.420303,190.143951 
	C165.639938,189.540268 166.167725,188.845825 167.076340,188.191620 
z"/>
<path fill="#EDF9D7" opacity="1.000000" stroke="none" 
	d="
M562.624390,213.250763 
	C562.936707,213.774323 563.021423,214.514450 563.171814,215.623932 
	C563.159485,216.156219 563.081482,216.319183 562.875122,216.720490 
	C562.630066,215.795013 562.513428,214.631180 562.624390,213.250763 
z"/>
<path fill="#269D4F" opacity="1.000000" stroke="none" 
	d="
M536.665710,256.629028 
	C537.047241,256.669128 537.501526,256.984985 537.983398,257.613281 
	C537.586853,257.585449 537.162659,257.245117 536.665710,256.629028 
z"/>
<path fill="#269D4F" opacity="1.000000" stroke="none" 
	d="
M524.069519,237.996429 
	C524.212036,237.457489 524.411255,237.143707 524.610474,236.829926 
	C524.683411,237.170074 524.756287,237.510239 524.700317,238.102020 
	C524.571411,238.353653 524.126221,238.221573 524.069519,237.996429 
z"/>
<path fill="#57AE50" opacity="1.000000" stroke="none" 
	d="
M518.298218,220.375854 
	C518.349182,220.099182 518.581055,220.149078 518.696411,220.131866 
	C518.811768,220.114670 518.875671,220.102051 518.871704,220.389618 
	C518.893311,221.069351 518.918884,221.461517 518.944397,221.853699 
	C518.944397,221.853699 518.881958,221.963104 518.923096,222.010315 
	C518.725159,221.589203 518.486206,221.120850 518.298218,220.375854 
z"/>
<path fill="#14984E" opacity="1.000000" stroke="none" 
	d="
M633.379150,267.781189 
	C633.296143,267.538361 633.500183,267.356567 633.945068,267.143646 
	C634.130981,267.419281 633.957764,267.662506 633.379150,267.781189 
z"/>
<path fill="#F3FCE5" opacity="1.000000" stroke="none" 
	d="
M200.150513,237.875031 
	C200.081131,237.670822 200.261185,237.376801 200.691605,236.994370 
	C200.761292,237.199051 200.580612,237.492142 200.150513,237.875031 
z"/>
<path fill="#A7CD65" opacity="1.000000" stroke="none" 
	d="
M615.897095,272.303955 
	C615.984436,272.128448 616.240906,272.097961 616.882629,272.118835 
	C616.867371,272.263123 616.466797,272.356049 615.897095,272.303955 
z"/>
<path fill="#A1CB5C" opacity="1.000000" stroke="none" 
	d="
M594.052124,142.804260 
	C594.134583,142.905487 593.926025,143.014191 593.813965,143.040604 
	C593.701904,143.067017 593.634888,142.765762 593.634888,142.765762 
	C593.634888,142.765762 593.969727,142.703018 594.052124,142.804260 
z"/>
<path fill="#A1CB5C" opacity="1.000000" stroke="none" 
	d="
M600.633545,138.929688 
	C600.655029,139.174255 600.371948,139.470901 599.767212,139.792206 
	C599.740051,139.538483 600.034485,139.260117 600.633545,138.929688 
z"/>
<path fill="#A7CD65" opacity="1.000000" stroke="none" 
	d="
M619.001221,272.221313 
	C619.062439,272.070862 619.248962,272.036621 619.718994,272.018799 
	C619.710449,272.135986 619.418518,272.236755 619.001221,272.221313 
z"/>
<path fill="#269D4F" opacity="1.000000" stroke="none" 
	d="
M538.120605,258.244598 
	C538.391968,258.067810 538.639465,258.232666 538.917236,258.699585 
	C538.634521,258.957855 538.350952,258.819397 538.120605,258.244598 
z"/>
<path fill="#F3FCE5" opacity="1.000000" stroke="none" 
	d="
M86.998055,244.001495 
	C87.116882,244.140900 87.237663,244.278793 87.358437,244.416702 
	C87.275833,244.367096 87.193237,244.317474 87.056793,244.131989 
	C87.002953,243.996094 87.000000,244.000000 86.998055,244.001495 
z"/>
<path fill="#57AE50" opacity="1.000000" stroke="none" 
	d="
M525.709167,241.288254 
	C525.916992,241.265839 526.006958,241.423462 526.009155,241.758209 
	C525.790955,241.803467 525.680908,241.647797 525.709167,241.288254 
z"/>
<path fill="#A6CA6B" opacity="1.000000" stroke="none" 
	d="
M366.613403,191.785614 
	C366.667358,192.007996 366.448364,192.367935 365.906982,192.800720 
	C365.836548,192.556778 366.088501,192.239975 366.613403,191.785614 
z"/>
<path fill="#F3FCE5" opacity="1.000000" stroke="none" 
	d="
M75.812622,214.125076 
	C75.594055,214.119675 75.374641,213.836990 75.149261,213.281464 
	C75.366119,213.288361 75.588959,213.568069 75.812622,214.125076 
z"/>
<path fill="#F6FCF2" opacity="1.000000" stroke="none" 
	d="
M585.249146,223.599731 
	C585.134033,222.051926 585.018921,220.504105 584.734436,218.590271 
	C584.565063,218.224258 584.470886,218.174454 584.522827,218.153030 
	C584.656494,216.654724 584.738098,215.177841 584.746826,213.339081 
	C584.813782,212.228836 584.953674,211.480484 585.201416,210.048889 
	C587.574890,205.914429 589.840576,202.463226 592.106262,199.012039 
	C594.226196,201.163559 596.346130,203.315063 598.759644,206.031219 
	C599.348755,206.914642 599.644226,207.233398 599.939697,207.552155 
	C599.898804,207.881912 599.857849,208.211685 599.933716,209.187317 
	C600.272400,213.867706 600.494385,217.902252 600.658691,222.064423 
	C600.601013,222.192078 600.699951,222.454132 600.475098,222.751129 
	C598.052734,227.644379 595.855286,232.240646 593.445679,236.924622 
	C592.850220,237.246445 592.466858,237.480530 592.083496,237.714630 
	C591.191345,236.325089 590.299133,234.935547 589.227478,232.958069 
	C588.406006,231.263962 587.764038,230.157761 587.097412,228.685974 
	C586.464905,226.746841 585.857056,225.173279 585.249146,223.599731 
z"/>
<path fill="#269D4F" opacity="1.000000" stroke="none" 
	d="
M603.144226,258.132233 
	C599.996460,260.735992 596.848755,263.339752 593.352234,265.977570 
	C593.787903,264.650696 594.572266,263.289734 595.784119,261.187134 
	C594.259094,261.465576 593.128052,261.562805 592.064819,261.884247 
	C586.089600,263.690796 581.162903,262.051819 576.299072,258.234283 
	C573.909302,256.358612 570.281189,256.094727 567.261047,254.973343 
	C565.787781,254.426315 564.423645,253.585678 563.385864,252.450226 
	C565.500793,251.728180 567.239868,251.433838 568.978943,251.139496 
	C569.726135,251.105453 570.473389,251.071411 572.047485,251.020874 
	C575.827515,251.170334 578.919678,250.836243 581.703857,251.609940 
	C586.933594,253.063232 591.959106,255.236099 597.124756,256.942810 
	C599.051880,257.579559 601.133179,257.749451 603.144226,258.132233 
z"/>
<path fill="#3EA54E" opacity="1.000000" stroke="none" 
	d="
M603.127686,258.101105 
	C601.133179,257.749451 599.051880,257.579559 597.124756,256.942810 
	C591.959106,255.236099 586.933594,253.063232 581.703857,251.609940 
	C578.919678,250.836243 575.827515,251.170334 572.420410,250.992111 
	C576.083374,249.051041 580.200256,247.122253 584.909180,245.415039 
	C588.757874,247.085449 591.996094,249.669250 595.275452,249.722595 
	C600.463684,249.806992 603.543396,252.001419 605.998840,256.004700 
	C605.563232,256.335938 605.127625,256.667175 604.162598,257.115845 
	C603.435791,257.509369 603.238403,257.785431 603.041016,258.061523 
	C603.041016,258.061523 603.111084,258.069977 603.127686,258.101105 
z"/>
<path fill="#57AE50" opacity="1.000000" stroke="none" 
	d="
M606.250366,255.867279 
	C603.543396,252.001419 600.463684,249.806992 595.275452,249.722595 
	C591.996094,249.669250 588.757874,247.085449 585.261841,245.399017 
	C586.500916,243.868744 587.979309,242.576065 590.102112,241.307129 
	C595.284302,242.552063 599.760010,244.198166 604.377686,244.873138 
	C608.861694,245.528564 610.764893,247.413269 609.979492,251.878143 
	C609.251221,252.586609 608.522888,253.295074 607.391296,253.902481 
	C606.889893,253.744141 606.791748,253.686859 606.693665,253.629578 
	C606.827148,253.813065 606.960571,253.996567 607.094055,254.180069 
	C606.896667,254.696686 606.699280,255.213287 606.250366,255.867279 
z"/>
<path fill="#62B152" opacity="1.000000" stroke="none" 
	d="
M610.224915,251.878983 
	C610.764893,247.413269 608.861694,245.528564 604.377686,244.873138 
	C599.760010,244.198166 595.284302,242.552063 590.401123,241.179169 
	C590.668762,240.135773 591.281799,239.244064 591.989136,238.033478 
	C592.466858,237.480530 592.850220,237.246445 593.795410,236.991882 
	C601.715088,237.300766 608.803101,238.544098 614.928711,243.046539 
	C613.966125,245.135941 613.003540,247.225357 611.749390,249.811340 
	C611.291687,250.817947 611.125549,251.327988 610.959351,251.838028 
	C610.959351,251.838028 610.470337,251.879822 610.224915,251.878983 
z"/>
<path fill="#9FCA59" opacity="1.000000" stroke="none" 
	d="
M587.122070,229.051575 
	C587.764038,230.157761 588.406006,231.263962 589.075256,232.692032 
	C583.026367,233.345474 576.940552,233.569199 570.883423,234.112717 
	C569.850159,234.205414 568.939636,235.666718 567.935974,236.945953 
	C566.644104,234.505524 565.388672,231.614929 564.525818,228.373856 
	C567.045959,228.662308 569.171570,229.827866 571.301697,229.836166 
	C576.574036,229.856720 581.848450,229.347748 587.122070,229.051575 
z"/>
<path fill="#3EA54E" opacity="1.000000" stroke="none" 
	d="
M568.536987,251.055450 
	C567.239868,251.433838 565.500793,251.728180 563.357117,252.047302 
	C562.218201,252.055283 561.483948,252.038483 560.382141,252.023407 
	C560.014648,252.025131 559.994202,251.572281 559.983093,251.346405 
	C562.679626,251.070816 565.387329,251.021103 568.536987,251.055450 
z"/>
<path fill="#9FCA59" opacity="1.000000" stroke="none" 
	d="
M519.188477,221.756912 
	C518.918884,221.461517 518.893311,221.069351 518.903809,220.384064 
	C519.104065,220.614014 519.268311,221.137070 519.188477,221.756912 
z"/>
<path fill="#7EBE5A" opacity="1.000000" stroke="none" 
	d="
M615.110901,243.025162 
	C608.803101,238.544098 601.715088,237.300766 594.007507,236.904175 
	C595.855286,232.240646 598.052734,227.644379 600.566895,223.220520 
	C600.275391,227.709045 602.198547,229.834778 606.506836,230.028091 
	C607.465759,230.071106 608.449280,230.370132 609.352356,230.726379 
	C616.811279,233.668671 616.806335,233.681168 620.956848,227.015717 
	C621.020691,227.023682 621.145569,226.992874 621.145569,226.992874 
	C619.428772,232.100601 617.711914,237.208328 615.827637,242.659088 
	C615.660095,243.002121 615.293152,243.003799 615.110901,243.025162 
z"/>
<path fill="#92C652" opacity="1.000000" stroke="none" 
	d="
M610.972168,252.256500 
	C611.125549,251.327988 611.291687,250.817947 611.687744,250.156677 
	C613.378906,250.319351 614.840210,250.633240 616.673950,251.011215 
	C616.336853,256.263306 615.820801,261.489624 614.803406,266.616516 
	C614.487000,268.210907 612.812683,269.535797 611.372681,270.994476 
	C610.054688,270.538727 609.124023,270.072571 608.193359,269.606415 
	C610.600952,265.569885 606.466003,260.408569 610.498291,256.521271 
	C611.222961,255.822601 610.850708,253.986099 610.972168,252.256500 
z"/>
<path fill="#9CCB56" opacity="1.000000" stroke="none" 
	d="
M641.240356,211.797119 
	C640.923279,210.616516 640.881042,209.200531 640.879089,207.359009 
	C641.117981,208.476212 641.316650,210.018967 641.240356,211.797119 
z"/>
<path fill="#3EA54E" opacity="1.000000" stroke="none" 
	d="
M644.715088,246.076874 
	C644.548035,246.411789 644.082397,246.714767 643.325928,247.019974 
	C643.495667,246.696457 643.956116,246.370712 644.715088,246.076874 
z"/>
<path fill="#FCFEF8" opacity="1.000000" stroke="none" 
	d="
M319.645020,191.097870 
	C330.084900,190.508835 335.246582,193.718842 338.696655,203.197235 
	C342.487244,213.611176 342.352753,223.944107 335.608276,233.143677 
	C328.284607,243.133347 315.255066,241.881226 309.413208,231.010269 
	C303.302368,219.638672 304.445312,204.475616 312.370300,195.882538 
	C314.205078,193.893097 316.920471,192.715820 319.645020,191.097870 
z"/>
<path fill="#FCFEF8" opacity="1.000000" stroke="none" 
	d="
M165.404449,226.278305 
	C162.828186,215.670273 162.536438,205.603897 169.494370,196.888977 
	C176.394150,188.246918 187.675735,188.796402 194.138626,197.701492 
	C200.969742,207.113953 200.590210,224.787598 193.359360,233.989731 
	C187.062607,242.003174 175.593643,241.914505 169.330460,233.645798 
	C167.750381,231.559753 166.804733,228.993179 165.404449,226.278305 
z"/>
<path fill="#FCFEF8" opacity="1.000000" stroke="none" 
	d="
M140.924896,201.310211 
	C145.228760,212.154129 145.265793,222.445160 139.067474,232.173691 
	C132.494553,242.490143 120.160126,242.559357 113.119133,232.505997 
	C106.969612,223.725510 107.021500,206.231445 113.399597,197.506317 
	C120.478188,187.822937 134.874435,188.136734 140.924896,201.310211 
z"/>
<path fill="#14984E" opacity="1.000000" stroke="none" 
	d="
M591.885010,198.728729 
	C589.840576,202.463226 587.574890,205.914429 585.133362,209.671997 
	C580.626404,209.651077 576.276306,209.474426 571.972107,208.933090 
	C569.811096,208.661316 567.733521,207.726028 565.228638,207.016418 
	C565.890686,204.654800 566.942200,202.367599 568.154663,199.797333 
	C569.770508,198.808273 571.253906,198.154938 572.675598,197.387238 
	C579.230469,193.847519 585.542542,194.358932 591.885010,198.728729 
z"/>
<path fill="#9FCA59" opacity="1.000000" stroke="none" 
	d="
M600.716309,221.936783 
	C600.494385,217.902252 600.272400,213.867706 600.048889,209.416992 
	C606.034790,213.034866 615.614807,213.188126 620.997314,208.972839 
	C621.322144,214.525925 621.490356,220.439682 621.402100,226.673157 
	C621.145569,226.992874 621.020691,227.023682 620.909912,226.633408 
	C614.191833,224.401764 607.946777,220.871445 600.716309,221.936783 
z"/>
<path fill="#9FCA59" opacity="1.000000" stroke="none" 
	d="
M599.868713,207.226501 
	C599.644226,207.233398 599.348755,206.914642 598.980530,206.271667 
	C599.204468,206.265274 599.501038,206.583069 599.868713,207.226501 
z"/>
<path fill="#FFFFFE" opacity="1.000000" stroke="none" 
	d="
M621.046143,238.368164 
	C621.343445,238.734756 621.383850,239.099594 621.424194,239.464432 
	C621.163391,239.462357 620.902527,239.460281 620.641724,239.458206 
	C620.690857,239.094269 620.739990,238.730347 621.046143,238.368164 
z"/>
<path fill="#8AC356" opacity="1.000000" stroke="none" 
	d="
M622.953369,180.350433 
	C623.362122,180.257401 623.986938,180.394974 624.780273,180.815277 
	C624.355652,180.925690 623.762634,180.753342 622.953369,180.350433 
z"/>
<path fill="#269D4F" opacity="1.000000" stroke="none" 
	d="
M603.296082,257.992859 
	C603.238403,257.785431 603.435791,257.509369 603.875732,257.139221 
	C603.929199,257.338165 603.740173,257.631165 603.296082,257.992859 
z"/>
<path fill="#86C053" opacity="1.000000" stroke="none" 
	d="
M587.097412,228.685974 
	C581.848450,229.347748 576.574036,229.856720 571.301697,229.836166 
	C569.171570,229.827866 567.045959,228.662308 564.540161,228.007065 
	C564.012024,227.281281 563.862000,226.571793 563.668762,225.502563 
	C570.650879,224.867767 577.676208,224.592712 584.975342,223.958710 
	C585.857056,225.173279 586.464905,226.746841 587.097412,228.685974 
z"/>
<path fill="#8AC356" opacity="1.000000" stroke="none" 
	d="
M600.658691,222.064423 
	C607.946777,220.871445 614.191833,224.401764 620.846069,226.625443 
	C616.806335,233.681168 616.811279,233.668671 609.352356,230.726379 
	C608.449280,230.370132 607.465759,230.071106 606.506836,230.028091 
	C602.198547,229.834778 600.275391,227.709045 600.791748,222.923523 
	C600.699951,222.454132 600.601013,222.192078 600.658691,222.064423 
z"/>
<path fill="#3EA54E" opacity="1.000000" stroke="none" 
	d="
M607.086304,254.130463 
	C606.960571,253.996567 606.827148,253.813065 606.693665,253.629578 
	C606.791748,253.686859 606.889893,253.744141 607.083069,253.947479 
	C607.178162,254.093521 607.078552,254.080841 607.086304,254.130463 
z"/>
</svg>